<mxfile host="drawio.corp.amazon.com" modified="2025-07-19T18:58:46.775Z" agent="Mozilla/5.0 (Macintosh; Intel Mac OS X 10_15_7) AppleWebKit/537.36 (KHTML, like Gecko) Chrome/138.0.0.0 Safari/537.36" etag="JoEr2V2JRI2vB-q1fZM0" version="21.7.4" type="device">
  <diagram name="Page-1" id="VghdWP-HzqG168t5EoY1">
    <mxGraphModel dx="1434" dy="819" grid="1" gridSize="10" guides="1" tooltips="1" connect="1" arrows="1" fold="1" page="1" pageScale="1" pageWidth="1100" pageHeight="850" math="0" shadow="0">
      <root>
        <mxCell id="0" />
        <mxCell id="1" parent="0" />
        <mxCell id="GyJonoBBoI0ZVEBApy-h-1" value="" style="shape=image;verticalLabelPosition=bottom;labelBackgroundColor=default;verticalAlign=top;aspect=fixed;imageAspect=0;image=data:image/png,iVBORw0KGgoAAAANSUhEUgAAA5gAAAE3CAYAAADPHe6vAAABYGlDQ1BJQ0MgUHJvZmlsZQAAKJF1kM1LAlEUxY9lTJiUQQsXLRRqEVnIONLaTCpwIVb0QZvxaWMw6nNmItpUmxZBy+hPiPYtbFEQfeyDoKBVqz7WgZuS6T6nUove43B+HO593HeBNq/Kue4GUChaRnpyPLCwuBSQXiGhG53ogU9lJo+lUkkqwbe3nuodXMJvR8RbmzvDQU/wYs9fjjw9L18O/q1vOZ5szmTkHySFccMCXGHi1LrFBW8T9xk0FPG+YM3hI8EZh0/rNbPpOPENsY/l1SzxI3Eo05RrTVzQ19jXDGJ6b644N0PuJ/VjAgkk6QYQhwyFJGMKiX96lHpPHCVwbMDAKjTkYVF3jBIOHTniaRTBMIoQsYwwKSp2/XuHjaw0BkSPCbYaGdOAk1367nUjG6C63ivg7IWrhvqzWVfVba5EZIe7KkDHgW2/zQPSEFC7t+33im3XDoH2B+C8+gmuRmLmCFosAAAAAFZlWElmTU0AKgAAAAgAAYdpAAQAAAABAAAAGgAAAAAAA5KGAAcAAAASAAAARKACAAQAAAABAAADmKADAAQAAAABAAABNwAAAABBU0NJSQAAAFNjcmVlbnNob3R+lFOQAAAB1mlUWHRYTUw6Y29tLmFkb2JlLnhtcAAAAAAAPHg6eG1wbWV0YSB4bWxuczp4PSJhZG9iZTpuczptZXRhLyIgeDp4bXB0az0iWE1QIENvcmUgNi4wLjAiPgogICA8cmRmOlJERiB4bWxuczpyZGY9Imh0dHA6Ly93d3cudzMub3JnLzE5OTkvMDIvMjItcmRmLXN5bnRheC1ucyMiPgogICAgICA8cmRmOkRlc2NyaXB0aW9uIHJkZjphYm91dD0iIgogICAgICAgICAgICB4bWxuczpleGlmPSJodHRwOi8vbnMuYWRvYmUuY29tL2V4aWYvMS4wLyI+CiAgICAgICAgIDxleGlmOlBpeGVsWURpbWVuc2lvbj4zMTE8L2V4aWY6UGl4ZWxZRGltZW5zaW9uPgogICAgICAgICA8ZXhpZjpQaXhlbFhEaW1lbnNpb24+OTIwPC9leGlmOlBpeGVsWERpbWVuc2lvbj4KICAgICAgICAgPGV4aWY6VXNlckNvbW1lbnQ+U2NyZWVuc2hvdDwvZXhpZjpVc2VyQ29tbWVudD4KICAgICAgPC9yZGY6RGVzY3JpcHRpb24+CiAgIDwvcmRmOlJERj4KPC94OnhtcG1ldGE+Clnq86QAAEAASURBVHgB7J0JoEzVH8d/szxKOyrZIjsJSSKUtEq7FlJUWuxKKUT/tGmRVJRKCpVWSdImouxb9j3Zkv3Zl/dm/r/vmTn33Zk377157ylv+f6YOfee7Z77uXfm3d/8fud3PLv3HAju3LVbShQrKhQSIAESIAESIAESIAESIAESIAESyAoBn98r3qAEs9KWbUiABEiABEiABEiABEiABEiABEjAIZCUFBCvx+NxMrhBAiRAAiRAAiRAAiRAAiRAAiRAAlkh4PV6xBsIBLLSlm1IgARIgARIgARIgARIgARIgARIwCEQDAbVgim0YDpEuEECJEACJEACJEACJEACJEACJJAlAnCO9Xp93iw1ZiMSIAESIAESIAESIAESIAESIAESsASSkpLFm5ycbPeZkgAJkAAJkAAJkAAJkAAJkAAJkECWCCT4E+gimyVybEQCJEACJEACJEACJEACJEACJBBBAMZLLlMSgYQ7JEACJEACJEACJEACJEACJEACWSJg5mB6OAczS/DYiARIgARIgARIgARIgARIgARIwCGAFUq4TImDgxskQAIkQAIkQAIkQAIkQAIkQAJZJeD3+8XrT0jIanu2IwESIAESIAESIAESIAESIAESIAFDIBhUC2ZS0hHiIAESIAESIAESIAESIAESIAESIIFsEfD5fOLXhTCz1Ul+aTzxL5GhvwdFFNf2LXrWfpEiJUWqlfRIj1r5hQLPkwRIgARIgARIgARIgARIgARiEwgkB8STuGd/cNeuPVKiWNHYtfJ57sQ1Iu9NCsr29apcIh4SPIpVufT4NURSguaZVKTR+apo1sznsHj6JEACJEACJEACJEACJEAC+ZaA1+cRz979h4Pbt++kghnjNnjhp6BMnqQFUCzxUp3SrWRC0bQKp00b1VRFs4bmU0iABEiABEiABEiABEiABEggHxHweL1qwdytFsxEWjDd133iSpEXhwRSFEp4EbsVTKtwWmsm0gTVPn1q0SygqSqeRtGs7u6V2yRAAiRAAiRAAiRAAiRAAiSQdwnAgukPiipFFENg4gp1h/1e3WHXBMXj9UjQk8LGE9R9r+brPzAz6WFNNd8gVH3UKJlootuT5wVl8Wado1lcLZrVCJgESIAESIAESIAESIAESIAE8jaBYDAofp8Pfp75WyYuV8Xym5Biad1hAcdsA41umv3oFLol6iWrsTOgimdAFU5NoWAib/sGVTQ3a7nm9aA1M3/fZDx7EiABEiABEiABEiABEsjjBJKTVR/K73MwXxgdlF/HqRLodoFVHVHUggmXV2vJNCksmMhHubrNwsJp9qNcZmPNzYR1s9F5QmtmHv9Q8fRIgARIgARIgARIgARIIL8SMEF+diXuCybu3pvvgvxMXKzzLF9QM6NRJPUWMEolFM2wAmmVRsy/1KyiFTxyrr7q6euyiqgs8svKoEz7MyiTJqnJ0iqomI+JNpp6TBAgrauOyMZ91uzr/MzqatGsih4oJEACJEACJEACJEACJEACJJA3CKjWI549+w4Fd+zYlW8UzMmLRIZ8ru6wK/T0oSdGKZKOomjzNb30Wq/0uh4ZacvzGnF24qTkFItmOABQKmtmOL/ReR7xaZfdq6TdJ0tIgARIgARIgARIgARIgARIILcQMApmfokiO2OByLBPA7JhqZkSKQFjmVQEsFhaZRIKJ/LD+0XVUnn/jV65rAoK4pPnfgrIpF/DFk1YLMMvj7rIRlgyC2iZHovWzPi4shYJkAAJkAAJkAAJkAAJkEDOJoDpg57dew8Ed+7cnactmO+NDMp3o4ISUMUxqC8Th0eVO6TYtwqltWgWraqK5c2qWGoaLb8sD8q74wJSvZLXzMHs1RQdRAqsmQvXqpV0nSqwUFitNdOmYVfZkHUzpHg2Odcjj1aO7Id7JEACJEACJEACJEACJEACJJBbCAQQRTY5GSFP86480S0gaxYH1R1VtWk94QCWFUFwHqQaxCeoWmYA61eG83v08stlOkcyWn5Zqorl2IBsW6V1tXjiKszf1Fq620tdaN3S8wq094hjzQRivBBtFkqm2dc6GnU2tC0yYUFQjiDaLOdmKiAKCZAACZAACZAACZAACZBAbiPghc6Vl4P89O4alD8XhSyXsF4ay6U71W1j0dS08W1eebylbsSQ575Ut1dVLqMtnY47reqKja/xSc+mUCxTy3M/B+TXyapMontrxQy7yIpNka+vIsU8MvKS1H0whwRIgARIgARIgARIgARIgARyOgHPrt37g4mJe/Kci+yooUH5fnhAFUiPJOvyIiZVyyXSgO4HkOp+ifO8cpcqlvVrpFYOf1moVsuv1GqJgEBwdUUVKIk2xbY7X/cvvVoDAsVwm9WaAkVz0mRVVFWR9Pi1E3d0WatoalrkLJGRl6YeD/qgkAAJkAAJkAAJkAAJkAAJkEBOJODxeMwswJw4tmyP6Zdh6v+rJwhvVLjDwhsVJ2z2VUMso26wLe7ySZ2aqRW5SequOuQLVSzVLdaxWmJEUCghSLXIdIZ90wXedE3N70MFOFbPayL77nW5V6t6QkomqsEt16Smaci6qfvbN6gL7ha1ip6h+RQSIAESIAESIAESIAESIAESyAUEkpN1VY3EPfuDu3blLQvmV+8E5adhAcclNln1OMdFVi2OV7X2SZt7rbYYeaUeeCJZ1i3VtmrhDKqFMxRlNpw6+9oGzdUSasqhR2If1kyk4f24rJmwXGrQHzM300Sc1cZwlS2hVsyr0BGFBEiABEiABEiABEiABEiABHI+AdWOoA7lPSVm7Rw1zapG6Qu//Dr5Ei+fWgybqdUylnL5zocBueGaJPlb3WJ9qpH6EMNHUw9MnmbypjvFdox9bRPKD6WTxgfkii5J8pym0QJrZtFS2v/h0Es0lUP6OqI1D+kLKYUESIAESIAESIAESIAESIAEcgkBn089NnfvPajLlCTmqTmYj9RKVgukV5JVO8R6l8Z6ibmYaoEcNh3RdFJk7tygfDwiWYMBQY9MmZtp5mhi7qYPczXVk9VYJq1FU9tbS2WU1TJVvq2n6aVX6fzMa5CRIlf0Sgr1hWwMzVozdd3M8e3znvKfcubcIgESIAESIAESIAESIAESyEsEAsFkqDMwZOYt8ak2aCyPqmTCqxXbUNWubBup3H00NCDjPgwpoapsmzmaqIcFQr3aRj2IDR2dThk2WEYpfO5ddG0NlSYfb2G2umnmXv4QMKl7bmbR0t7QeplaWw6Hm6CZ7Qv5FBIgARIgARIgARIgARIgARLI4QS8Hp/a2/KefqmurQF1j9UX0qTwC9tR5/rj0GStpy6xSXjBJRbusUGTetXdNbQdyveGyz1wg9U6WNPSSbUstO9OtQ7yw2XBcJuJ45PlF0SlDcv9l6kSq2XO67BuH9KXphQSIAESIAESIAESIAESIAESyC0EfH4vFsrIe4qMP9lrDIDW8oggP7AnVjkf7yFZNFuVSfV9RQ7qmRTRZrGvL7jVepzycD0tCSou2CGNgREN3WJ3bWrL3IgjjaihGtoZjoCgQqEjaba7je2HKQmQAAmQAAmQAAmQAAmQAAnkUAJJatzTlTyitaEcOtpMDAuWSw/cZOHnCkUNyiL2XX3AdRYWSixhAj9ak+qcS6PgqRaZKt8sKaLquLrPok+P9on1NSOWGsEBcDzMy4RgGy+bD+USZcizgm21cgZNRFpNocEiz9RBQwoJkAAJkAAJkAAJkAAJkAAJ5HwCXtWV/AF1Jc1rElQ/VhN7R82Qxoqpp2gskkZpC50tVDdEmUUKZREYoFyChlk3E6k2NvvIh5KqFk2zr42QovOgbphts483l1j90Ka2yDUOk6UdGAumVWxtPaYkQAIkQAIkQAIkQAIkQAIkkEsIwFjmd1wyc8mg4xlmcuCwGhb9qij6dN4lLJmqwKlSp6F7nObGgqkmXJ2HGipDERQ/vKAQ2tRaHMOWTuSXru6Rv5agjlo0ocHq5M6glpt1M8OWTmPZNAfRctuf7V+bOoI8nc9pLJdaz7Fg4rimoVOTGyRAAiRAAiRAAiRAAiRAAiSQYwlANfJ7ET41j0nA+Jyqm6sqeLoaprrCajQjKJpQ5sKCbb/mBVS5gwUSMXsAJKAaJJYlwT68YU0+tlFHK/R8yScX1NIClcEjAvLdp6qk6iRP9BHQ8tAhQuWmQ1QM72LTiGscZt+aQF318qLiHz57JiRAAiRAAiRAAiRAAiRAAnmQQFJSsgZMTYYKlbcEFszk4GEJ4BU4okriEdX+sOhIimAb0Wa96hvrNZFmw/s6L9OrkWX9igWpT5U/RJlFFNnPJ/gd5RI9tb/LK99+65ezq6BOqD7qGa0UWMORYx0N1uRpvlvBxLZtY7TUUHsTdVY3KSRAAiRAAiRAAiRAAiRAAiSQGwgk+BPypotsAAqlapDW7dSDwDnQKIO67GdYzTQWTJ1YGbI8hqyYXvWlxVxM6IGhOZehbczFvKZN2pbeGud6ZcMi9KQWTK2GdTexZ9xnNXXErVjaTOShcmiA+h5ytaUF0wJiSgIkQAIkQAIkQAIkQAIkkBsIwHipsUtjaT25YfhpjzE5qFZLWDH1lRS2ZmLbbTqEvmnWyMT6mLBiwpqplkxj0cS2eYXWxTTrYaaDqbbOyfSpVuqsmxleV9NjLZjuFNbK6L6stVPL7HqZtGCmfX1ZQgIkQAIkQAIkQAIkQAIkkAMJqJKlkWTTtszlwCHHNSS4xAaCSTonEq/QdrKmbmUaVk3MwcQL0WSdVNfQxDqazkvLECgIq4ikJXV0TubXP/il2R0631OtkVhfEyuk+HRuJhRPRJ+NMJW6O0K/sGDal1E2w/vuetwmARIgARIgARIgARIgARIggRxMACuU5MllSgIBNQWGA/yon6y6qqpFEu6xcJUNC5RNzNP0JvnFp/qfx6uKtmqFpgrcXOHrqtqiJymUrp5jwrra5jHTB1qHlj359mOd76nRZD2qlWoPxmIZ0OYIMGusl1AmrVgFE/vYxsvWQx6FBEiABEiABEiABEiABEiABHIBAb/fL15/QkIuGGrmhog5mLBcJqsV07Fmqtus24KJ7aDmIeKssWaq0udYMY3VUvfVkqkrkJh0w+ygPHhBsnw+JEU7/GMOtMFIuV+VzDE/JEizFrCMqgVTq5uXWiZhBcX8zFQCqyXyI17QMikkQAIkQAIkQAIkQAIkQAIkkDsIBINqwUxK0oA4eUySNXJsyHYIi6TfWDB1NqXqby7tTk2VSWrB9BkLp7rASoJaM31mXUxjRYQyqDoeggEhtTLhHZGf3kuW0rU9snq+HkUNnFfe65M72+qGSx642yt4vT08IOM+UQ0S5kuNShvUtU+gtDqCIWGOJsqhgSLF8YwpFRsUEiABEiABEiABEiABEiABEsj5BHw+XR7S683Y9TPnn0rkCM28S2ceJuZghqyZIaUtVBcWTMzRxNzMQDBZVc+wNVOVvQTMwVTN0b7MHE1jzVSrJFItWz8H1kmP1vHIz0MDcvfFSfLRey4FNjykh1TJHDteLZq3wxoaUi4jFEzUs3M0dc5mKIQt8sIdMCEBEiABEiABEiABEiABEiCBXEAgoIFS/TBj5jVBFFmclxf+qLBgqrbm1XekVrAdsnRqvtaDpdOrbYLeUOpTa6YaPbW9vtQ4qWF7dFtnVGJb8zBn08yxDJfD8vjj+/B1FammQX9qqoXTLe1U0UTOuFEatdZVYIIHoRn6QQWkeFFIgARIgARIgARIgARIgARIIBcR8Ki3pt/nw9qQeUtgsYSyZtbB1FPzGEUz8hyhbgZNpNmwRmdcZUOKqDEfansvrJVq5k1SBRAOsB6sk6kpDI3QBREICCkEyqZXLZE/vR+QHzTzynu90uo+tEoRWDPxcgvoI+KsUX1tZ+4K3CYBEiABEiABEiABEiABEiCBXEAgqEY3b3ISFmbMW2LWwdT5lYgSCytlskaVxbbbWgvlE3MwA6bcXRfb4XU0NUVEWl94XUwn1fC72Mb6mc5amupa69VXaC3MoPykbrOtLj4iIzRNT+Yt0HbhdTPNXExYMzEnM2QMTa8py0iABEiABEiABEiABEiABEggxxDwYCUPWPLymtj5lFgL00SR1Uix2B792nrnVKteXEiu6Fw4NAfTztc0abJRMBFd1q6hqQuahKLJBsLrYyJV6yXmaGKNTLNmJrbDL8zLRORYv2rwsGi2apgkwzWNJZiP6V43E9ZMZ05mrAbMIwESIAESIAESIAESIAESIIEcSABGvDzqIptk3GO9ntAkyqBaGoMazGjl1G0Rl+GmR0+Ho6z89Po2nUIJF1fUQ6rtdN+D9poiAm0w4Df7UCite6xZc0QVxFC0WXV9xbqZqmR6VGtMmbOptRX0yrla8d6Iw5udn0ZirqjWV2XUWTdTlcwghk4hARIgARIgARIgARIgARIggVxCIBlenR73Ghy5ZOAZDbPchaeqUqgWSGO5VDdXjRaLbVgz+94yP6L5zY+eIW+tqyqXdzpNrZmqmNp2JrosXGtD0WUxrxNzNh1rprqwOpZLY80M72vvxrIJC6axaIo0beOTZ95MrTE+9rBaRrWeiS6rKeZwmn3dLlGJEzIjLhR3SIAESIAESIAESIAESIAEcjQBv1+Xf0w6kvfWwTSusYHw/Es7nxL7qmAun7ZVPn1xbaoLA2vm4L8qSZOOp2g92xbpYUnCy5nTGSqTAJRDtT4mheZjwvrpxVxN3bd559QMSldVLO94IDKwDw6OuZnr56GN2kd1DqZXFdbQ/E0EFwpKzSqphsgMEiABEiABEiABEiABEiABEsixBGDB9OzZdyi4Y8cuKVGsaI4daGYHNn/KZnnmjgnqpqoLfYouO6KurnB31VmSmob2kX9d53Jy2+Nnp+p+9CtbtY1Xfh64S91WQ+1Q3/SB9ujXk6D7qqFLQmjKpBooEV1WjZZS6kKPXNXOI1U0jZYFs4Py1bCArP4D63BqfW2HNuYVbo/8r75NrZRG98V9EiABEiABEiABEiABEiABEsgpBHRSoHpxJue9cKU1GxaT8nUKy8oZOudSo+YEVYuDQoj1Lr1mORLMqwzKNwNXmvT2x8tEXBNYMyGYpPrTGzu0jq6liXmSarXEHE2soYkyKJxm7qZOmISba+l6Xrm8g1cqXpRasVw8Kyhj3k2WNeqhG9C+fLpGDEIsYe4lIgiZNDwX85o7U7ePGCB3SIAESIAESIAESIAESIAESCCHEfCqjuPZvfdAcOfO3XnKgmk5P37jd7Jy5vaQpVEtj55g2JppLJBQOjUvvH1913Jy62OprZnoa0z/7fLz64lhC6a2035g2fTBOqrvsIpe2rmgXNUl9TxL036wKqrvBCIslsmqTMayXJau6ZHn+1PBtNeQKQmQAAmQAAmQAAmQAAmQQO4gEIARbmfivuDu3XvzpIKJy/Bhv7ky+vUFqghCwVTl0Li8piiWbiUTFsnru6ii2b10zCs4pv8Oo2jC5da00/7K1jterupcSCrW86dqs2J6UN65VwMFqb4IZdKkMVxibTmUy74D6RqbCiQzSIAESIAESIAESIAESIAEcj4B1Xs8u1TBTMzDCiauwof95qiSuTBsbYQFEopmWMk0Fsiwwhi2Zla4qIhUqVtYFc1SqS4irJmweq6edUiadj5NKtUvkKrOqmkBmTBIZO0MtVKGFUqrRDpzLTXfyVNrZpN7PXL7fbRcpoLJDBIgARIgARIgARIgARIggVxDwLNr9/5gYuKePGvBdF8JWDO/VkXTusWG0hQ3V+PuCrfXsIXyui5l07Rmuvu12yumJsnPbx6WdWq5NIGFVBFVXTasSHrVRVbdZBHQx1g0vZofkFJ1fHJt26BUq03l0nJkSgIkQAIkQAIkQAIkQAIkkPsIYAnMfKVg4hLBmqnRdWTM64tVCfSqspmiUIZcaMOutKpkhiLP+qVZlzIxrZnuS/7tq3vklzf2O8qpo6yGLaTJsGQaxVIVTlUyS9XxyJUPilS+wN0Lt0mABEiABEiABEiABEiABEggdxII6NKNnsQ9+4O7duUPC6b7MqVYM6FghpYb8ajiaVxn4ULrCgBklzqBolml/ilSrcFJpqslv++TldMOmkizWK7ELlsCxdRnggqF+rHWTOMuq0pmm2EaaTbGEibu8XGbBEiABEiABEiABEiABEiABHITASxTogrmAVUw82YU2XguxvB+89RtFtZMtViqtdEG70EwIGPdNHnID+37HMumKpRGIU0IzekMl6NehHKqiqad89moQ4Jc0YlBfOK5LqxDAiRAAiRAAiRAAiRAAiSQuwh4feohunvvQV2mJDFfzMFM7/IM7/eHus0uctxijUIJZREursaNFkGBsAdLZYrCGVIoUS8UNAhLl0SXl7noOLmi4/FSoa76yVJIgARIgARIgARIgARIgARIIA8SCASTVRsSGDIpdz9RQyEEZOmMbbp25jaz7dF1XFSr1P8hRp6gWh/Nf93XMq9Gf8U/rPeia6CoYol6mq/9YL9s3QJyVceTpdJFqSPNkjgJkAAJkAAJkAAJkAAJkAAJ5CUCxki3W11kd+ZjF9lYFzRkzVysCmN4bqZJQ3M1PZ6wSyzW0wyGAgTZYEBuy2Wnj86WyrpGJoUESIAESIAESIAESIAESIAE8gMBn19dZPNrkJ94LvCIFxeo2+wS4/4a4TKLeZWYcxkOBgTHWbOvBuFrOpeQmx4pFk/3rEMCJEACJEACJEACJEACJEACeYYA/Dl1DqZaMHfm3yA/8VzNES8ulG8GLlGLZlixtAol9rGtrwr1isiNXUpLNY0ySyEBEiABEiABEiABEiABEiCB/EbA4zXrYO4LJibuzfdBfuK5+CNfXGTmaK6eudME8qlY9wyjXN78cHmpfvFp8XTBOiRAAiRAAiRAAiRAAiRAAiSQNwkgfk3ibl0HMzH/rYOZN68oz4oESIAESIAESIAESIAESIAEjg0BDV0jutwj12U8Nvh5VBIgARIgARIgARIgARIgARLIOwSSkpLFm5ycnHfOiGdCAiRAAiRAAiRAAiRAAiRAAiRwTAgk+HXFDZ2GeUwOzoOSAAmQAAmQAAmQAAmQAAmQAAnkHQIwXnqDgmCyFBIgARIgARIgARIgARIgARIgARLIBgG1XXq9mIlJIQESIAESIAESIAESIAESIAESIIFsEAgEAuLFG4UESIAESIAESIAESIAESIAESIAEskPA7/eL15+QkJ0+2JYESIAESIAESIAESIAESIAESIAEJBhUC2ZS0hGiIAESIAESIAESIAESIAESIAESIIFsEfD5fDoH0+vLVidsTAIkQAIkQAIkQAIkQAIkQAIkQAKBZLVgwoxJIQESIAESIAESIAESIAESIAESIIHsEPDoIphen8+fnT7YlgRIgARIgARIgARIgARIgARIgAR0DqYqmMlJSURBAiRAAiRAAiRAAiRAAiRAAiRAAtki4PEE1UVWgtnqhI1JgARIgARIgARIgARIgARIgARIIBhUBZMusrwRSIAESIAESIAESIAESIAESIAEsksgOTkofo/Hk91+2D6HEzh0+LB8P2GKbN+xS667urGcXqRwDh8xh0cC2SOwbccOGTt+opx6yslyzeWN5LjjCmavQ7YmARIgARIgARIgARLIkIDf7xV/0pH8sQ7mlm3b5atvfpAZs/+QjRv/ln37D8jppxeWMqVLybWqdDVuWFf8mQh4NOm3GTLqy29jQvZ6vFKyxFlStXI5qXFeFSlbqmTMev9V5ttDP5bhH39hDjdx0lQZ8W7//+rQOeY4H44aLdNmzHXG82Lf7nLKSSc5+3Zj8HsfyYLFy8zu6UULyzO9HrZFEWm3ns/LvgMHTF7VSuWl80OtI8rj3ene+0XZvXevqX53i5uk/oXnx9s0Zr307stYDZ545CEpU6pErKJcnffw48/JkmXLzTn8tW6jdG3fJlefDwdPAiRAAiRAAiRAArmBgLFg+vx5P4oslIvXBw1NdU3Wr98oeE35fboUL36WvPrCk1LhnLNT1YuVsWXrDpk1e16sIpM3Y5bIl+HShzvdL61uuyHNuv92wZq1651D4KH7cNIRKeBPcPLyw8ZJJ54Qcb3mzl+sPypcFHHqAfUZ/+jTr+XgwZDiiMIu7e+RoqedGlHvrw0bZdKUqU5e+TjvGaeBa2PW3D9k9+7dJqdBvQuyrWBmdF+6Dm029+9LOdfosty6n5ScJGvWrnOGv3T5KmebGyRAAiRAAiRAAiRAAv8uAW8gOfnfPcIx7v25V96KqVxGD2vTpr/ljtYdZO7CJdFF2d4f8Ma7MnTE59nuJ6sd3HvXrUaBPu644+XRLg/mO+US3OrXjbQMzv1jcSqcK1evjVAuUWHW3AWp6s2dH3mPXHxR7VR1ckuGGtvznMAT4eGO98nJJ59s7vv729ye586RJ0QCJEACJEACJEACOZGAV9fB9GMxzLwqP078Tb4aMy7i9C5tWF/qqbJRuuRZMmveQpk0eYas+fNPp86TT78in334hpx4wglOXjwbnw0fLF71OYasWbNOfvl1mnz/00Sn6djxP8t9qugdC6lxbmUZM+odc2hvPp1zW+z0onJ26dLy17qQZWvWnNSKI9yno2WW5l3TpFFE9uwopfP8mtUiynPSzofvvCo+vy/NIVUsf06aZbm5oPkNV8vN119lTiG/3vPxXL8j6s0QCAQkORf+0Ojz+cTr9UpCPvPGiOe6sg4JkAAJkAAJHCsCyckB8eMtLwrc5F54ZXDEqfV+oovceO0VTt6FtWvIA23ukAc695IFC0MWrX/+2SIffjxaOtzfyqkXz8bZpYs7czgx57LJJfXNg9uPE341zeGKu3nrNoGiA5kyfY7jGllW54FWrVze5Ns3uGEuWrLC7BYsUFAuv7S+LTIpzu/PvzbKytV/ydq/1suJ6gJavNgZctGFNeXEQoUi6i5dsUpdBkNusrDqNAxb3Nz5ZxU7U84/r6rsP3hQ5i9YIgsWLZOzzy4ptWtUkzOKFonoz72TrG6lc1ThWqVK9c5diVKi+JkCl9GqlStIeg/2G/7+R1au+lNWh8d11plF9fjV5Cw9h7QkK23cfTW8uI6jYK5ctVr27tsX8UPCjNnz3dXN9vRZqd2gZ81JUUQvqnuBFEwoENFu5Zq/5I+FS+Ufvd5F1L22nPKoXqVi3IFmFup1X7JslZnjWa9ODalUoVy6LCMOHrVTueI5zn0ZVRSxO13PffuOnSbvBL1/Lm1QN6L8n23bZPbchU5e7RrnSrEzT4+4jyuUKysVy5WRFWoJxv2zc9duqX3+uXJe1YoZjiFeZrjvf9CAVVbgVgz+GD+OWV7H0PSKRhHjivX5QnsEApo6Y578vXmbJBTw631bSqpVrqTX7BTbvZO6P69Vq1Qw86q37dxlLNzr1m2SalUrSM3qVVJ99pwOdAPBtn7Xz/36TZvl4IFDUrF8GammfaX3+UL7zIzTfbz0tuEOfuTI4VypWNrzglKMFxTkBL0H0vu+sW2YkgAJkAAJkAAJ/LsEQhbMf/cYx6z3mXMWOgocBtHithsjlEs7sASdgzrghV7S8r6uAuUSMu6HX6Rd2zuz/cACS6lVMNGvT39ttzJoyHBVsFab3Za335RKwZz020zHtRdKoVvBxMP44xocxlrjbJ9I4Qbbud09cvvNTZ3s8T9O1rmFX5n9CuXLOQqmO7/JpQ1lh0aZfbz38047u3Hv3XfEVLhX/7lOuj7xjMC9OFrOq15Nnnysg5QrWzqiKHHPHun7whsRcxjdFW5odpX0fLRdhEKSlTbuPu02AuiM/MTOjBWZt3CZwwKKy/QZs21VJ8U9AYWgVPFiJm/T5i2qiO1wyhu43GP3HTgoj/V6QWbMmuOU240zzzxDnuj2kDSqd6HNSpUeOZIkvfr2j7B8D3pbjKtn397dnLGmangUMlasWisDB73n9PTBkFeluiqGVl569R3nmuF+/Oazd02R+z5u26alfPfDJBnxSSiglG2Le7K7BhO64ZomNstJM8vs4KHD0ueZ/k77AS/1kaeefc35rDdqUM8omO5xxfp8vTb4g1TjtJ126dBWWt7aLOIedPf3+MPt5YvR38uoz7+2TZz0tZefjnmd4E3x9PMDU7lgoyF+pHjx6ccifuywHWZ2nLZdRmluVy7d5xeyvh4W/BBHIQESIAESIAESOMYEgiJeyaMuk79OmRFBFxE60xIsZXDdNZc7xVAqMB8vO5IcSDZusrYPKBhHY3mQdRs3mbmisZRLHAsBal4aMFjG/ZjinmvHkF66YvWamMol2rw/fJR8+tV3Ec1hjW3X9cmYyiUqwiJ8293tBVZHK7CatGr7iKOo2Hx3OubbH+TZl1Msz1lp4+7PvV2rZlX3rsybv8jZXxC2FiMDClFVtWRZcc/DnONqg3L8iAA5kpQk3Xo+F1O5RDnuqYe795Uff/kNuzHlvQ9GRSiXthKCAD3Ru5+xDNq8o51CoSrliib76pspQbHmqkXbHdQI8xtPiuFCDjfwaOUS48Q92ff5ATLTZflF/tFg9my/Nx3lEn3GI2+//3HMcdq2ULRfei1F2bb5Nv163E8xlUuUd33sKVm0NOR5YOtPUyt4jz79YiqXqIMfNlrd/4ixVNo2SLM7Tndf7m24xeZGl1j3OURv43xwXhQSIAESIAESIIFjSwBLYKaY1I7tWI760TdtTlFsoDBk5IZWqULZiDH8s3VrxH5GO5N/nyWTp80ULBPxyRdjpW3HniY6rW33vx5d7Ga20p8nTYtoD2vKaJ1fOeztV6RSxQpO2buqrGRG4MILadb0Cmn3QGs5p2wkjy++Hu90Bzfa9l37OJY8WLRg9Rny+gsmiBB4W3nepSwu1gdvt7XzlhubyUfD3hDMX216VYp1a+y4HwXLykCy0sYeOzpF5Nz6F9Vxst0un7Nmp8zJbHTxhdLI5SI6c1aKS6xbwcSPBnaJj74vvhERpfauFs1l0IBnBZZHWI2tvNB/sMAiG0ugiIHdHbfeKD27dxLMF7aCso6P9DFKmc2LJ/1hwm8C61msFyzQVhAYp8cj7e2u+YFg4pTpAgV/wBspymb1c6tKs6svc+q5N6wHwE3XNZUnH+8iV1/R2F0sDz/xrHGjtplHgxmsyWCGY93XuoXg2qUnY8ZPkHeHfexUaXzJxfLyc72k/wu9BdtWvvz6W7VwL7W7EenyFSvNMVu1uEVa33mrsTC7K4z/abKzC2+Djo/0dvbxWYFHwFM9H5aGF6dEMcbnb8y4CU69ozFOp7OoDbiU5kXJq+eVF68Vz4kESIAESCDvEsCPvv48asCUrdtS3BjPrZpijUrrcmL+mFu2bElp785Pa/uxXs/FLIKi1rd3V6mi8+iOhsx0zROEQnlb2BW2dIni8tKzT8hb746UM04vImeeUVQwP9KXiQsMpeaW664yw2yrAYm6qkKAJVwgCIQExbLQccfJwkXLI9xzBw/oK1UqhuaQXlCrulSvVklaP/CIaQd3USgycJWdGRVYp0v7NnLC8ceZev/r2VnnUfnl+OP1x4Aziqhh3WPys9LGNEzjrWG9OjJ1+ixTunjpMuec3HMtG9S/QM4pU0refm+4qTdDl6OBooU5XnM0MJSVhmF3V8yt++77FOWgx6MdBUFmrGCeYIt7uhgrJqyRP/w0xbluto5NX3m+p9SrU8vs4lo889Kb8vXY780+lCnMWa1cPvJetW1jpX2eeSVWtsnDjwlPu374qHtBDaNkTfz1d1M+8K1hsl/X+rTrSSKz56Pt03Udd89zvqnZFRpYqaQMGTrC9AcleeHS5cZN+Ggxg8L2wZCX5eySJcwxMnobrWvhWrmyySXy3FOPOufTUJXTR3V908m/hX7E+eSzb6SWzquMJe+/9ZJUCl8HuNNfek0Lx0K5UOeCWvnh5xRlE3mvvdhHEHQLcr26DD/c4znneN+rYmoDgR2tcZoDRb3lNeulPb28el72/JiSAAmQAAmQQG4g4NEpgX6R0IN8bhhwZsZ4+HCKu9TxYSUmvfbHHx8ZqCW9upkpg2LW5dGnBYrDedVCD5aZaR9d9/SihZ0sWFKggNxw7eVSpVJ5KXnWmfJcn25OeWY38MDrlisuu9hRMJH/17oNRpFc6HIBrFWjupQqWVz27t/vNC2jwYGwrqi1Vq7RIERQMIu6xo7Kj6gC2+LW6+SC86ub4Ch9Hu/k9GE3stLGto2VWpdWW4bAMOfpA78N8oR8zNU8Rd2mobxAIcRrlVqiTjnlROecUO/i+iH32CXLV2PXkSubNIjggWiXF15QU2CZhbgth04j3cBcPKtc2vxHOrV1FEzkLdM1HTOjYNp+4k0f1eNZBRNWNfd8R1hWEcQnLUGUXncQLdS77+7m8snnYxw31qXL1hgF82gxa35T07iVS8yzXbhoiTP8W/RHACjQbmnc6CJH4cM1jyUXnF/TUS5RjnncV13eSODeDVn9Z0q7hYuXmzy8wcpqlUub2a1zW3P/232MEXI0xmn7zG6KQHDfqFvwnPkLZe+eveazcWmjetJYX/+GwBK5QgOAnaafwTM1kBSFBEiABEiABEgg9xDw+VTBtJai3DPs+EYKK5idp7hi1ZoMGyEKqlswLzMz8tZrz4k/IcE02b17j7p2rpSPPxtjrBqwPLXr2luGv9M/VdCbzBwDdW9Sq5bbWgbrlrVwVatSWa67tolROOEOmhmBpRUPym6pppFP3WIjDrstNPP+WCiXXHWbu1qq7TV/bhC5VP83uFBeCyttqDR77nzzwjaUEzzct7r9Bjnt1JQonllpg/7SklIlikUov3B5dbvWwSpsj9+gfh2HNeYPFilyWkS3F9Q6z+y7lQhkNL7mjoh60TtQuGNJpQrnpMqGhdetrC9boffytamqpZkBN+S0fkI6r3pqyz4iwz7U9m7Hems7hrLd7r4WdjdmWqVSaiu9z+vTaKnnONd5qSrIkKPFrErF1MeMOTjNjJ5X/WDnHmlVNfn4/oDCB/dht5SPoWRX04BIVsGEpRYCD4JFS1IUzEoxxoofhe689Xp394Lozm7J6jjdfWRn+80hH8if6oVwfCGdm6zeIKvXrJUxY3+QxMQ9cuN1V2an65ht9+7dL2+/O0JqaaTi1q2ax6zDTBIgARIgARIggZxJIEljIuiTk4b6yYNyZng5EJwa5obt0SUpbGASRAK1ytLpqjQcd1xB/cV8bQQFt6UwoiCNHayF6H4QxTIPTRpfLHfeE7LK4aHzux8nSacH706jh/iysZTIi8/0lOdeTh3cBC6feL37/ifyuEbtxFIp8Qp+bYiWtLxr12/4O7pquvs7wstfnHLSSTpP83np8+wAJ4KubYiH+Q9G4vWZmUvXXt0OIVlpY/tMK22oiuOnX3xjijEP88jhJKcq3FmtNLjoAkfBnDFrvi7LcYYtUqtTTeMujIyNGzc7+fFsbN8eWg4kui6WmoklRQqf5lhO/9myLVaVNPO6d20bcV+mWdFV0LhR3VQKZh1d0iejtWFPiBH4B91ahR3bW7aG5tYeLWZYBzFe2bApZV52vG327NkXMX60Q/jtaIn1Q90e/aHJKpuoX6Rwyg8n0e3d+0drnO4+s7qNpZKgXBbXKMqPdnnArDt58OBheeq5/vLrb9Pl2qsb6w9cP5p5xW1bh35Y+WXSVBPo6IF7Wup3awGZp0GiZusPNHvU+onpCpdf1sD0c1gjAn+rEbvR/2m6nE9t415fWd5Q12zIvD8WqZIekHvvSv8HrKyeG9uRAAmQAAmQAAkcfQJej08VzLypX+rDyrny7fifHGoTJ083c56Q8dbQjxzFAUFfBvTrJRMnh+ZdoRxBQypXSm1NQllmBK6MWK7Dul/O/SO01mZ0H/v3R7rpoXznjsToas4+liy5tOGFugbfQp0TuMg8zM3SeYJWYDHt/uTz8vPYj1I9HNs62UkREMlah4sULiy9XfP4YvWLNS6twMVy1LCBsnTlapk2c74sVhfCufogCTdUK0M//ESqq9uqXa8zK21sX7HSenVrOwomrs3OXbucag11/qUVrClqZa5aOgsXPtXuSv16tZ3tCuXLONvYwFIV6cnxBWO7Y//9d2iZnOi2cE22gjVG/2159Y33Ux1iwsQpep/dJOdGWbXdFf92BdZy56/bsMnZLXdOabN9tJg5HcexUb5cJDsEIop2wY7uJi2lP7perH14QVg3a5SvXbcxVrVUef/1OFMNwJWxLGxNbabu81aZh9L4bJ9HNeCUTuJXT4llK1bLrsSUz+9avV/XqJXTLP0zc7FG3B1jFMhTTjlJl7H5RfAjyV0tb5b3R34uy5atlMq6Zu4/W7bKsOGfSuf29+qapCneFwVd265hcZMESIAESIAESCCHEvD51UU2mEc1zMsuqafrzg1w0GO7gj5gIhhNj27tZPGSlUZJQsCXupfe6NTDxhVNGprF2yMys7CDQCYrVqpLY1gO6S/2Vk466US7qcuZTJWeumakOyAPFJq0BA9ueKCDEm3n7MFCO3DQhzJ67HdOs8XqjthAlamjLedqEB+7vmdhta5ZRdB9HERKPUFd6txWXZQjWM6evXvNupJV7rzFNMH5jB0/UZ59caDTBZYQsf1mpY3TUYyN2mptdouNoIsfFqpWLu8UwXoKt2NYhWGJ2rQp5YeAi8PLk6AyeLilZvXKjrXc5mOOql/dRWEtT0sQQCjaJXO5zkVzK9+VK2b/h4+0jo/8n9X6hMBMVtwK0vOvvCUj3n1F13P12eKIFO6gOM8TCxVy8hENGHOFrVQOu4keLWa233hSBALCNbZWxdNOPdm5x2z7w+rWcfDgITn5xJTPpy3LSlrzvGrOnE531GLb12y95kOGjTK78CJ485WnzJzS/3qcdjzR6bawtb3YmWeaollqiZzy+0ynGhTF9AQKJSzbPbppcCidi/zuB5/oj2ILpOXtN6pnyVZBIICrmjSSEmcVkyWqzJ566qny0H2tdO7vK8ZF9k5dI5hCAiRAAiRAAiSQewgkJQUQQDG1u1fuOYW0R4qHXCwH4JYuj/WVz0aP1+U1dkm/vt3dRRHbre9M/6EponIaO9t27pJXXh/qPMyi2kV1Uixi51ap4LSEAjH0w89kryqJWBvwjSHDjVLjVAhvQIlsfG1LoxBfdcPdMnDwh04VuP/WqhkZ8fLUk09yyo/mRnWdb2Zl5arVMnzU13bXpGvXb5TLmrYw48R4sdwF5KGHe0udRteZsgc6P2mUKeRDCa3nYoO8U/ThH5KVNqZhOm+IhFvnglqpamCJi2jlCZFFowVW2/JlU6xh5cuWiqjS59nXBOugWoHCcs9Dj8vFV9yir1vN9bVl7hRW4bfe+9jJQtTeJ/u+6uxjI9Y8vogK2djB8V4a8LbTA5ZJeXvgc84+FMXP9fOTluA+fvHVIWbuIergXv7f869HVEcwKsjRYhbReQY7iAJco3pVp1b/N94TfE7d0q//22YObe2GzeT+zr3cRVnahiXeCqzl7s/KvgMH5c13RsjceX+YF4JB4bNwLMZpxxidIho1ZNv2HSb1qhJcUH8kWb/xb1mnn3P3j2amgustWS2cmI++T7+34FHxaI9nZHl4Du42jfLd9KrGpvbAQUPl8T4vyAJ1pS1QQGdtUEiABEiABEiABHItAUwl8rsDnOTaM0lj4A/ee4f8Pn2OY0GB6+iLrw5Ko3Yo+/FHOkjZUiXTrROr8IrrU+ZWui1O7roIGmMlOoAOlnKwyznYOtEplMjyupwKHkghoz7/2riWnXduFVmrgWPcSyJgjcb03Bmj+87MPqx8WMPPLmGChemnTJ1lImTu1jlrWEPQLfXD1r5a553rrBUJZQVrhdZXCytchCeEl8aw7ez80ay0sX2kl16s8yvdbsWoi+VJoqVBvfNTzUd0X0fUh1LQuf198vrgoaY5lrm49a5Ogoi1BdUd9vufJpl5wCiE9QwW8rQEc1DHa/3ixc7UOWgLI6qBOYLCZEYuubpFutVfe6mP1NG5b5AhOncXnxErD3e6zxwPgYLsNX3j7Q/l8sb1pagq2bHkux8myG/TZpm5drDCW2sh6latXEnzQz+sHE1mscaRVl7bNrc7FlpEOb61VXtdO7Ouzq89XWboEkDu6K2NG16UVjdx599y/ZUagfVHsVZyfFYwZ7Ga/sCEqKx27VB0eIXO2bbyX4/THjc6LX9OGflVpw/8op/PiuXLSO2a1QWfyRdfHWzm0xZXyyMsr8n6Y8LhQ0ekQMEE2bUr0XTj8/uMhbKAurk+0rGtyTuiEWkTtH7RoqfpckRFpZIu37RyzZ96TebLXOVxwomFlEPan4/o8XGfBEiABEiABEggZxEIqrei35NmjMmcNdisjAYPsUNef1Z6/u8VZ+3DjPppemWjjKrELE9LqbSVX+j7hCBAjxXMoXQraTYfKdzj7mh+nQl4487H9uMPP6BrTD7qPLhjSQm7rIS7bjddbuLfEnB98Znu0rHb046ya60w0cfsrUuPFCwQmnN4523N5LepM511FfEw736gt22xeL1VpLLSxvaTXlr/wlryWlSFi+qcH5WjFkN9AHa7iaIClOJoad3iJmOtgYIIgTXSzlN1123d6rY0lxnBfGC4bEPpcCseaI8ov1izMbPiVvBitU1SxQCySpfWGPnJl04VWP/tNejwwJ0yTtf5RF949VfL/Av/e8ypazesOzE+C3atUVsGq++AF3uJO7rx0WBm+483xWcQc2S7PvaUaYKxuudq236w/E7zm662u1lO4Wb99oBn5e4HujnKe6x744ZmV0kzDZhj5b8epz1udFpV50diGSLMlXzx1bcECieicsO9tbZGUcavlHBv3aLzKgfrurEIjgbLphW4Qi9cuFRmqVtsKV2r9/PR44zV8/mnu8tT6gYLC+jdLW/RsrNkhc7lDASCclx4jvJKnceJAEG1XN+btl+mJEACJEACJEACOZMAnGO9cHnKywKrH6w0z/6vuwaOSVHw0jrn3ureiDl/GYk/IfY8NNsOD9QN6teVezWy4icfvClXNm5gi0xqlDR108WDJRQYK1A6B+p4z3G5XbqXD4Fr5sj3B5g19Wwbm0IxrVuntnz58ZCICLL+hNhuZ2nl2/7SSwsmFNBF43sLrFs4brRgTcevR70nl7nWykMU0kEDnpY2qmTFaoMlQvDw3/mh1k53WWnjNE5nA+ty4hpZwbGLnJY6yifcFaMtlnXr1LDNIlJECO7Soa2u3XdGRD52KpQvp+f+rHROJ4rwlWrZxA8R7vsBY7zxuqvljf5PCZYsyUgyui+j2/vDS9O4A/vgmPfc1dypCiWpa8d7nX3Mv13oWn7DFtQ4r4q8NfD5iPPHuWD9x7deezam1TOzzGygGXvMtFL3Zya6Dub24j6DRTVacO26dX5QhrzxfIQynF5/0X1E78M6OuTN56VRg3rRReaHg64d7xesAYvvBLdkZZzu9kdjG9bJTg/dI9WrV1E32Z3qtTBDduxM1CBXdaRVi5vNIa7TdXhPVnf8tWvX6xIm60zQHhTo3xdprcpjRZ13+/OEKSaIz5EjR6TNnc3Nkkh3aftCek8P1XmZEyb+JqVLldB75RK1ghaQeuphgDU3h3/0hTkG30iABEiABEiABHIHgSSdIuPZtXtfMDFxr5QoVjR3jDqbo0TgnU1qIdqna62dcXoRXduwsKzXKJd33tvVsQq2f7CN3Pcfr7/29+YtJqJlZh5kDx05rJaDHbJV3RqLn3G6cfPLJp4sNUdglM1q0cB9dJoqacWLnWHmkaXXGeYobtUHVlg+TtD5smeXLp7qATu6fVbaRPfxX+xj/cOtGtxmx/ZdxmXwbH1wzsx1xRhxPxw8dEjKnl3qvxhylo9xxz1dnCVnWmpAlm4d7zN9IbjPrsQ9Uk6j3rqDV6V1oKPBLK2+08vfqe6cmzWCqUcDF8GKFo8Sn15/GZUhCNLfm7cK1og6u3RJZ6mbjNodzXHuP7A/o8OlWb5v334N2lMoZrl1kY1ViGWhDugc3xNjtIWLPNxo7Y8dtj2s6wFtB4UzXil0fOyxxdue9UiABEiABEiABLJHAMYAT+Lu/UE8COYXBTMtZIjmOGf+ElMMK9B/rWCmNS7mk0BOJpCWgpmTx5zfx5YdBTOns6OCmdOvEMdHAiRAAiSQ1wmYOZh5dZmSzF68CzTQCV4UEiABEsjLBBCtNjk5Oc+dIs6LQgIkQAIkQAIkcIwJmDmYnrw9B/MYI+bhSYAESCBHEYh3HmuOGnQcg8mr5xXHqbMKCZAACZAACeQYAlihJE8vU5JjSHMgJJBHCSBq6D86hxFS6PjUwZ7y6Gnn6tNK8CdotNZAnrJiwnqJ86KQAAmQAAmQAAkcWwKIqeDZu/9wcLsGW8nvczCP7aXg0UmABEjgvyOASNlHNEhYXnCVNcqlRrVGxGcKCZAACZAACZDAMSbg0XUwEc2QQgIkQAIkkH8IQBkrWKCgHNHv/9xqzYRiCbdYWi7zz33LMyUBEiABEsj5BPD32a8LYeb8kXKEJEACJEACR50AlbOjjpQdkgAJkAAJkEC+JoAlxrzBYCBfQ+DJkwAJkAAJkAAJkAAJkAAJkAAJZJ+Ax+sRr8/nz35P7IEESIAESIAESIAESIAESIAESCBfEwgGVcFMTkrK1xB48iRAAiRAAiRAAiRAAiRAAiRAAtkn4NEgP96gBLPfE3sgARIgARIgARIgARIgARIgARLI1wSCGqmeLrL5+hbgyZMACZAACZAACZAACZAACZDA0SGQnKwKpodrhx0dmuyFBEiABEiABEiABEiABEiABPIxAb/fK96kI1wHMx/fAzx1EiABEiABEiABEiABEiABEjgqBIwF0+dnFNmjQpOdkAAJkAAJkAAJkAAJkAAJkEA+J+ANJCfncwQ8fRIgARIgARIgARIgARIgARIggewS8GIdTCyGSSGBf4tAkv6AsXzVn4KUEpvAmrXrZO/+/bELmUsCJEACJEACJEACJEACuYRAcnJA/HjLa/L1tz/Ib9NmSaWK58j9rVumOr1B73wof/61Xi6/rJFc3aRRqnJmHD0CI0d9Jb9PnSUNLr5QWrdsfvQ6TqcnjY4sT7/wquzdt1/qnF9Dbr/lulS1+7/xrvy9+R/p9VgnOe3UU1KV/1cZs+b+Ie8M/UgKFz5VXnym5391WB6HBEiABEiABEiABEiABI46gZAF86h3e+w7vLRhPdmzZ6/MnDlflq1cFTGg+QuXyPw/Fss+VT4aXFQ7oow72SPQpftTcn+H7pIcSLFWVqpQTgqdcLyUL1c2e51novXyVatk48bNkrhrt0yaMi1iPLabzf9sMeWHj3GQqxJnFZOTTj5RqlWtZIeWYbptxw7D+ann+mdYN6sVJv023Rxj1JffZLULtiMBEiABEiABEiABEshvBNTQ45U8uEzJqaecLNc1vcJczg9HfiGwaEGg+Az/+AuzfcuNTeXEE04w2/YtYCvajGykyYFgTMUmukvUi0fiHVs89eKpgzEdTkodYTietm6M9S48Xwa+9LRcXDfryry7v3hY/TplulMt6UiS/qCwxNnP6kZmzzvWcWL1UfysM+XVF/rI3S1uidXEuXdjFSYlpSjy0eWxjhVdB/sZsc2LHg6xODCPBEiABEiABEiABEgg+wSwBGaeDSF7zZWXGuvVtm07NJ0qjRvVlx9+nix7du+VokULS5NLGhiCmPv26RdjZfHS5aasRIli0qDehXJ541A5Kr02aKgsX7laej/eRaAQQDb9/Y888+JAqVC+rDzS8X5Zu36DvNh/sNSpXUOOHD4ic/9YpC665UyZaRD19t2PE2XK7zME4zvl1JPlnla3yZtDPpAzzygq/+v5iFN75pz58vPEKfLXuo3i9XoFFkG4mp52Wsit046twwOt5YuvxxnLHSyGTS5tINeHlWzbWbx9tVJlZ/Q3442YmmTuAABAAElEQVSF76lej0jJ4sVk4uSpMu6HX0we+ju7dAm5+87mUrpkCdm6fbv0eaa/QJmDdHi4l5xV7AxzHt9PmCRjxv4ot97UTOqrktmt5zOmTv9+veW4AgXNNhT/R57oK4eVW79nesgpJ50kf23YKF+P/UGWLV9l+i1e/Ey5845bpGK5MqZNWm9JyUkyd/4iU3zLzU3ly6++k8lTZ0jtWtXTapJmPqzfn3w2Rjb/s1UC6kp+qjJvfuO1UveCmk4b3AfvDx8l6zf+bfLK6fiubHKJ1Dy3itmHAvf1uB/Mtca9hz7O07LbbmkmBRMKOPfNedUqS7v77zZt0utzyrSZMlx/NIFs2bJN2nXtKQ0vristb73B5KV3nVDBXo87ml9v7lHwxX1VXY//wL0txe/zy7sffmys/6g/6dep8tvUmaas1nnnIotCAiRAAiRAAiRAAiRAAjEJJGvcFW8eNGCak/V5fXLvXbeb7c+++laVoB0yRudmQtq2aWEMt0eSkuTlAW/J9Blz5Ii6Sp5zTmmdl7dFFc5vZPzPE01dvB04eMAoOW6LXpIqRVCo9qurLSRZrUnYnzZ9jsyeu0CKFD5NzjrzDFMW/fbTL1Nk9JjxRrksWfIs0/b1t9437Xera68VKKnvvv+xUS7POedsM1dw8ZLl0rffa4510Y7tjbeHmTmHUFb37zsgY8f9JFP1vKxkpq8Phn8qBw4cFCh1BQokyM+TfpOPP/3auB1XVKX5DFWCofC+8MogAcMEf4JUqVzBHsoo1lUqhfYPHzoS4nTggBx3XEEpVbK4HD50WObOCymBaLRwyQoz5tNV8YdyCYW1n/a9aNEyo3CXKVNSNm36R15+dbCs37TZOU6sDSiXUAZxLRs3rG+qLNH+Dx48FKt6mnnrN26S/q+9Y46LHxXQ366difLesI8FQXkgh44c1rmeAwwLKNzn1zhXVq9eK2/pHN9tO3aZOqPHjpfvxk8w99cFtc+TAgkJMlktrFBcIfa+2b1vn9nPqM/Cp55qrouprG/gXrpUCbOb0XVCJXs9Pv7sa1mlY8UPGrhv5ym3YcM/M/2UKlnSpPYNxyh82ql2lykJkAAJkAAJkAAJkAAJxCTgUcOFWjDzbhTZqvpgjLltUMr6PPOKUTwuOP88KVf2bAMED+RQXGC1fKrHI0bphPXoqWf7y1ejx0uj+nXlhEKFYsJLL/OJRzs4x4iuB4sWLI2Qrh3bSrUqFc32SwPflpUr1pht+/auKjNen1d6du8kZ6ulEDLk/ZEye84CmaBjv+byxraqsUB1fLCN2R+hgXWgxMxfsNhYDZGZmb6qVKkgXTu0Tfn1QcdcQQMm3XZzMylTKqR89Hr6JWNBW7N2vVRSK27nh+4RzMGEctu53b1qCfOZsUS/XdLgIqOETZs51xnbjLAi3Ojii0z1EZ98ZZSelnfcpEpiPZP32/TZ8uGIz4zy/2jnB6K7dfYn/z7TbDeof6EULFBAcC5Ll66UabPmOn05ldPZSEzcI9WrVxFYFjGnFzLy09Hy6+RpynWJnFOmtFpXV5t7CvdPz0c7mToLFy+TaTPnyI6du6SoBu6Zpz8SQNq1vVtwP8J1dZiex4knRrpnm0r6llGfuF86tbtHevTuZxR9cHckjutk65500ony7FOPGSvyPJ2XPPjtD2SRWvEhCHx1XMEC8pFeh0svqS933najbcaUBEiABEiABEiABEiABNIk4FPdxQ8/2bwscCd94qkXjMICZa3l7SkPyyt1+QwI3B4tBlirataoZgIBrVrzl9QIuzrGywjKhlVgY7VB5FJY2M466wxHuUS9G5tdbSx0ts2WbdvNmLG/efNW88J20SJFkMjaP9eb1L5BcbPSUCO2QsHEsSCZ7evqyy9NUS61PdyF8UI/sIRuVivv7j17TN87duzUtKzZjucNCv4HIz+TZctWGgug35cgCLwEqVf3fJPa61Lo+ONlxuz5Js8qrOvVdTYtgbvzcnX5hMBVGdJQFU0omJM1aI1VVk1BBm/n6g8TeO3eu1fdp1fI5i1bZeWq0A8A23fuMK3PKVvapAgoNFStvhfqMStWOMco+7b7CuXPMdfuw48+lytUcTu3WiW57+6QZd3Wcafx9Omu797OzHWqXbO646KMexyfDfw4gDnBPi5d5MbKbRIgARIgARIgARIggTgJJGkMF7VgqtkjDwvmKta/6AL5TS1bjdUac9KJJzpnu37DJrNdrNjpTh42ihnX1sWybv3GTCuYxxc6PqKv6J1NYaWvaNGQomjLzzwjcv+vdRtskXHLdHbCG1D23IJIpFZOPCFkdQ2EAwhlti/M4XTL0hWrjAUUcwizKwl+v9Q8r5q6yC5Ut8zFGmipkFGkK1Uqb6zF+9U1187lhDtqtEAJSkumz5jrFMHFFgI/cMiGDX/Lzl2JcS9JsitxtwwcPNS0Mx3EeDtJg0TByvrF6HHGzRqu1lDULlGLZ/ObmkoBdR2+7urLZcvW7Ubx/fTzb+TTz8VYzO/QOZOVdT5ttMTTZ3Qbu5+Z6wQLphX4ycN9GWyDwYBmx7Y+2/pMSYAESIAESIAESIAESCAWAa/Hpwpm3tYvzXnj4RkCi5hbzjzjdDOvbrta4YoWLuwUbddlICDFzoxUPN3KTVaVreLFQkGCtm7d5hwPG5v/idzH3DgI5lR265TaJbSAujDGK9nt6/XBofmhUNDraIAbLK3xyedjjFIV7xjc9WBthYIJV9ITwgr5JQ3qmiqFjj/OKGmw8vbt/ai7WYbbUzSYj5V/NABOtEzRYDXRgY+i69j990d8apRLKL5XqeURc0cR6Om9YZ/YKiaFVbRBvTqyRC2ysHQicNPESb+buY1NLrnYBGOCS+8/er2XaPnUGbNl7doNMmjIBzLw5b4RfdmdjPq09aLTo32dovvnPgmQAAmQAAmQAAmQAAmkR8Dn94o3mB80zDQoVNS5g5DxP0wyKd4S1fVznq6TCYG7IwSKKOT3GbNMinmUmL+ZFTlLFUxYueD2iqiuEERR/TxqvcGSJYqbeljPM6GA30RlRWRWWOEQgXZTBsFu3GPLTl97NfgMLIpQaFvqXLwK55SRggUTZJlaNdOSAxrQJz1BAKDjji9oIsSCtT/BL7U0QI6V0qWKm03Mh8U54wWr6tcapGnJ8pW2WkSKIE6YTwu2gwc+L2+9lvLqoHMWIVAw4xUcG3JXi5uNyyuWvlmweGlEc8y3xJxYzLOEmykiud5w3ZWmDpRNRLSFIj5k6EgN+nSqiWTc89HO5nwPHjgkW6Os0GiYUZ+hAXhNcujw4dCuvmflOjmNY2xYx/mDBw/GKGUWCZAACZAACZAACZAACaQmkJQUyPtzMFOfdkpO40b1ZKIuw4AgQIgGCivVHzofEApVfbVKIaIppFqVSiY67MyZ82V5OBAPFL+sCOZ6tlKlBUtNIELsRxo4BhFOsVSEW+C2iLU8x+hSHU8/P0DO1zlzfnUvxZIRsO65l8pwt4u1nZ2+sFYoAtLs3btPXtdItWVKl9QouX8Yy2/0saDIrlixWvqFl2u5sdlV0VXMPhjUq3uBsfThXC68sGZEUKDmN10rrwwYIm+/N0IwZ/NkVe6mq7UTFuRTTw0tzxLd8ZRwcB8EdYIbrluqV61slDpEgV2n0WFL6zgzEijSiAYMS2Od2jXlz7/Wy8KFkQomIgUj4BIi1y7T88Z85ukavAhSs3pVs+QHgv3MVyUaczirV6siK3QeJ+4vKMxnnl7UcHWPJaM+UbeIRnSFUp64a7cgONSlahG+UMcY73VyHy+t7bJlSpkiuB3v239Amt/Q1FmiJ602zCcBEiABEiABEiABEsjfBLway8MbCGDOVd4WLFkSSzAfs2f3jmZNR8zRwxIjWLy+obprtrnzVqcJlLkmlzUw1jE81EOBuf+elqbck4WAKA3rXSj365qDiHDq02irCATzWNeHnOPZjWZXN5Hrrr3CKCpTp802gXugZN7dqrkJQGPrpZUiipOV7PTV/sHWxuIIBQvLn2CeJBS5aMG8QswFxfqMP/z8a3RxxD6UIiuXNAhFabX7lcqXk/YPtTHrlULJ+2Xib0a5hIvurTq3MZbA3RaCNSGjBUFrzq8VspD+NjVkhY6uE71/x203mOVA/v57i3zz7Y+yVF1gG2jwJLcgINSdOgcT1s0pv80w1wefp+ubXSmNwuPAWqFws4VFdLyuI4plTLD8S6/und1dOdvx9AkFvU2rW839iMjDv0+fbdrHe52cg8XYQN8QrG+KCLIQXHdYZCkkQAIkQAIkQAIkQAIkkB6BoLp6ehJ37w/u0iUZShQLzflLr0FeLoM7IwK7uOdiRp8vlpiA+2dWli5x9wWX2L90HUksdWFl3oJFMnjIcMG6mE/1eNhmOylcd4MatAfKTHYlq33ZtR2x/EZ6skcjrybo+pnHFQjNfU2vbkZlsO7uUTddXBer/GTU5miW49j7NDrt6UWKphtd1bio6o8TaV0fuFVv27Fdy09JZWFNa7zx9Jm4e7daLguZHyFsP/FeJ1s/vTRJgyTBen3KyScfE/7pjY1lJEACJEACJEACJEACOYuAR+1bnj37DgZ37EjM9wrmf3lpHu/9vOzYsUsub9JQLqpTS5cT2SJfjhlv3E6vbXq53HhtaB7ffzkmHosESIAESIAESIAESIAESIAEskMAhjTPrt37gomJe6lgZodkJtsi4uigdz6Uw4cOR7SEK2X7++/WaLfHReRzhwRIgARIgARIgARIgARIgARyOgHElaGL7DG6SgcPH5Kly1fr8iT/6FqQJ8jZpUqYeW/HaDg8LAmQAAmQAAmQAAmQAAmQAAlki4CZg0kLZrYYsjEJkAAJkAAJkAAJkAAJkAAJkIASwBKYGkk2JdIoqZAACZAACZAACZAACZAACZAACZBAVghgRYV8sUxJVuCwDQmQAAmQAAmQAAmQAAmQAAmQQPwEsKSi15+QEH8L1iQBEiABEiABEiABEiABEiABEiCBGASCQbVgJiUdiVHELBIgARIgARIgARIgARIgARIgARKIn4DP59M5mF5f/C1YkwRIgARIgARIgARIgARIgARIgARiEAgkqwUTZkwKCZAACZAACZAACZAACZAACZAACWSHgMfrEa/P589OH2xLAiRAAiRAAiRAAiRAAiRAAiRAAhIMqoKZnJREFCRAAiRAAiRAAiRAAiRAAiRAAiSQLQIej66DicUwKSRAAiRAAiRAAiRAAiRAAiRAAiSQHQLBoCqYdJHNDkK2JQESIAESIAESIAESIAESIAESAIHkZFUwPR4PaZAACZAACZAACZAACZAACZAACZBAtgj4/V5dB/MI18HMFkU2JgESIAESIAESIAESIAESIAESCFkwfX5GkeW9QAIkQAIkQAIkQAIkQAIkQAIkkH0C3kBycvZ7YQ8kQAIkQAIkQAIkQAIkQAIkQAL5moAX62BiMUwKCZAACZAACZAACZAACZAACZAACWSHQHJyQNfB1DcKCZAACZAACZAACZAACZAACZAACWSHQMiCmZ0e2JYESIAESIAESIAESIAESIAESIAEQCAo4hUuU8KbgQRIgARIgARIgARIgARIgARIIJsEsASmN5t9sDkJkAAJkAAJkAAJkAAJkAAJkAAJ6DIlyRrkhzF+eCuQAAmQAAmQAAmQAAmQAAmQAAlkk4DH64UFkxpmNjmyOQmQAAmQAAmQAAmQAAmQAAnkewI+nyqY8JOlkAAJkAAJkAAJkAAJkAAJkAAJkEB2CCQlHYEFU0P9UEiABEiABEiABEiABEiABEiABEggGwS8Hp8qmNQvs4GQTUmABEiABEiABEiABEiABEiABEDA51cX2SA1TN4NJEACJEACJEACJEACJEACJEAC2SSQlBTgHMxsMmRzEiABEiABEiABEiABEiABEiABJeD16jqYgUCAMEiABEiABEiABEiABEiABEiABEggWwSCwaBaMLlMSbYgsjEJkAAJkAAJkAAJkAAJkAAJkIAugKkLlHi9ulYJhQRIIGcTOHTksOzclZizB8nR5XoC/2zbJsn6y2N+ksQ9e2T/wYP56ZTzxLnmx3s1T1y4HHQSf67fID/+8pvMXbgkB42KQyGB3E8gKSlZvMnJybn/TGKcwYDBw+TBLk86JS+//p4898pbzv6/sTF73kK59e5OMui9kf9G9zm+TzyYfvfTZOn97ABpfG1LwwLXYeGS5Tl27B+OGm3GOXHK9JhjjL6PYlb6DzIf7PykXH7dnbJl2/b/4Gj/7iHWb9xsmE/4deq/e6Bs9N7psaflzXdGZKOHUNNtO3cdtXO9p/3jMnTkF9keU1odzJj9hzS9qY28/No7aVXJc/l79u2Ty5q2kFb3PZLuuW3avMVcx6kz56Vbj4X/DYH8eK/+N2Tzz1FGfDpGmrd8SHo81U/eef+T/HPiefxMp0yfY76rN/+zNY+fac4+vQR/Qt51kd2w4W9ZsWqNcwU2bPxbNm7a7Oz/Gxujx/4oa/78Uz7WL67DushofpMBbw6V3n1fkt+mzZKL6tSSIkVOlZGffCltHuwmM+f8keNwQCH+6JPR5pp9Meb7mOOLvo9iVvoPMhs1qCuNGtSTU04+Ke6jtWnXXe7v3Cvu+pmtCAWsdsNmmW0mB9RahM/Jzl27M932v2qwdt0G2aCKcHYlKSnpqJ3ripVr5J9/tmV3SGm2L13yLKlzQS05v2a1NOtkpeCIMsB9MmTYqKw0/1fbFCpUSK5scok0bnRRuseBB0Hont2Vbj0W/jcE/q17Ndbos/o9F6uv6Lyc/NmIHmte2g/o3/73h38q55QtK58OHyTP9umWl04vX5/L7t27zXf1gcOH8jWHY33yMF76uUyJGJcwHxyGXYIvIG9Unqs41ea+Awfl+58mSqlSJWT9+o0y+bdZcvml9VPVsxlp9Z9Wvm0HpSh6rLYsM2lGx7F9xXu8T74YK5989rU0vbqJPN2zq8Nu+85Euev+h+XhJ56V4e/0l3JlS9uu407jHUO89eyB56jFefuOHeaaTZ8xW2BtKnraqbY4S2k8Y8iIfaw+7r3zljTHE6t+mpVdBfG2i7eeq+ujuglekPQ+j/GOMd560ScQT7t46mSl3+g2dj+j+wj18ACLrzG/z2+bmTTWWM8qdoa8PeCZiHrunVht3OXYjqdOdJvMtDt0+LAkJOCX0cjv61jHjYcPvktf+N9jsYZk8pIDyeLz+tIstwWxjm/LbHq06tj+0krjOU5abd35afFLK9+2jXX8jNqgbax2tk+b2vs5o3vV1k8rjedYabWNlX+0+4t1jPTy4j1+Wp+f6L7j7S+jehmVRx833v14+rX3SvR3H46Bh18oIrfccI2UL3t2zMPis5+sQTALqCXGLfEcG/Vj1Yvnc+A+1tHsJ7rfWPtH8/sunnONxSjWuGLdt/G2jdUf8/4DAnju8Hry3xxMuBne3rqTdGl/j0yYNFWmTp9llIz2998lVSqWV1faQTJr9jypVqWy3HpzU7nu6ssyvBoTJv1u6vR8tIM83ruffPv9L6kUzLvu7ya1a1U3D33f/fCLqX/z9VfLA/fcIc+r++7k32fI8ccfJzdce5W0ufMmKViggKmD+UFDP/xMxn73s1GITj75ZGl2TRPp0q618+DYtPm9ckCV3Gg5v8a50v/5niYb8w3e//BzY2FERv26taW1Ki4Vy5Ux5XizY/T7ffLdjxPVYrJF6tapLU/17CRnFi3q1Ive+Pjzb6RSxQrS5/FOEQ9/RU47RQYN6GtcUcaO/0W6tm8T3TTN/dHf/iQj1ML417p1pg4seL26d3CUwP5qMV24eLm0aH6dDFPXwZWrVpsxPNzxXqmjnDOScd9PNFWeebKbWlkfkfE//ip33X5DRs1Slc9dsEQGqzVv3h8LTRnum26d20qNcys7df9WF7t+A4bI7LkLTF6jiy+Utq1vdxTugwcPyYBBw2Ti5KnmGoP5HbdeK43qXWjq41xnzVkgo4YNdPqEUv/56PGGT9XKleTyJg2k9R03CeaU3XjHg+YPKCrDXRn3S7eO95m2R4Mr3DUXLFxs+kP/JYufJSPe7W/2j9abuV+H6/06dZYcPnxEataoJt273i9nlyxhDhHP5yK79wisbt9+P0E2bfpbatWoLr0e7yBlS5V0ThFjeOu9j2TK1Jnmh6UK5ctJ+wfudK6bUzG88bN+3zz38pvy8rM9jAvuwkVLzK/osKA9eF/LDH88Sk5OErhtfzPuJ8Pk4noXyP1t7pAK54Qekux3W4cH7pafdG7R7Lnz5dEuD5rPCNw8B+l9OkndwQ8ePCDF9Zrde9dtclOzK8zobNvHuj4kTa9oJHasLzzdXYbqdZg77w/TpkXz66Xlrdc5p5bevTvptxnS6+lXTN133h8po774Rno91tH5boQ70xejv9NrPMP03bB+HXlIOZx84ommjR1Dz8c6qBvbKPPL9CcfvCnr1m8yHJ9+squ8+/6nsmTZcql+blXp3b2jbFLXqHeGfmzy8J1xd8ubpVb1Ks54ozfwnVe1cgXp0e0hU4SHrCF6rImTp5vj4bN1z13No5uZeZsZXft47tH0+KU6aDoZaX0foEn0tbXd4PPx+7Q58tVHg02W/f7Hw3m8f6Ns31n5exrvPRl9PzfRH2/xN9zeq5+PGW++g+15udOBL/WR86qFvovd9xv+jja5pIF0aneXnHJSbM+Q9L7nMvrs9/jfy4IfMUcOHSBnFC1ihgRPmUHvDJenenQx++l9NtznkNa2+3zweY738+P+m2/7judetfdHRs8HM/Xv3JtvD5fFS5c5n2tcwxP0+aZX3/6yeNkKvefedp4V+r74hn7epsm7b77gKHxf63fcQP2ue+/NfubvZEa87X0Yfa/g+cAt+Pv3ysDQNIBhIz6VL/Xeaf/AXXKrKps4v1r6d2avus7/8PNk44lln59GfjZGfp74u+A7G98Jl+k92Fq/W+yPXfZvzU3XXyXvfTDK/M1ofMnF0vfJh2XUl+Nk9Dffy44du+Ra/RH+3la3SLEzT3cPy9m255GZz9PqP9dJ245P6PfUbXL3HTc6feEH/uat2gmeMzs9eLeT797A993b6iI8YeJU51miw4N3qevwS9Lnic7SuGHIuyNe/o90aqt/D2fp98psKVAgQb1D6knPR9s5z6o4tvu+jfU5TOt7H/dtRs8v7nPj9rEjgBVK8s0yJXfph66Nfqgh+GUFv14902+gFCxYQB64t5V5WOvRp5/c1767+Hw+zbtLdu/dI/977lVZsHhZhlcJylORwoXlAlVsml51mUz5fbrsSox0AdylxxzxyReqiCyWVi1ullIlissHIz+T5nd10IehVdLi1htM3jvvj5CRn33jHPO5lwaZelWrVJSuHe83SurHn46Wdz/4zKlzw7VXSvMbmzqvKpUqmHMsWqSwqbN1+w55sGNPo1xC2bix2ZWqsPwhD3buKVB+rNgx/vLrNLlF+8MX5IxZc6TLY2lbNqDQ4AH8Uv0iSvBHWkrQLx7I8eC9KBNzMfEl8uyLA+W44wpK+wfb6Hk1U6vwNHmi94t2qLJv337zZd/v1bfMH9bb9cH3L3VtfKhzD8H5pif4svx2/E9y9RWNpXrViuYhf5z+KJBZWfXnX3J/h+76wLtRWre6Tdq2aSmbVSlv/3BvwfwuCH5pa/3go7Jg0VJ92L1FOre7R/7Q7cee7Cf4ZQ7yzEtvyhdffytXNGmkSkxn8yPEw937CpQsCM71ny0pcwpCfySHSOlSxaVn907Kt4y8PmiojNVzADP8kbWC7UtUoYUcLa4tb7tej3O86RP9t7wj84q5aZzGG6zJHR7uY5RLc2/f1FSWLF0hLe/p6nyu4vlcZOce+emXX2W8eiXgs4L7BD8g4DOE6wnBH+bH9X7EZ/GCmjWkw0P3mHxct7Rcwg+p2w6+e7poHVynjtqmZIli+gPSJ/LaoPdN+/Tevh77vVEub9IHhubKBJ/hDnqvbVNLPMR+t73wypty+MgRafdAazm3aiWjDLV/pLfxsrj6ikukS4e2cqo+YOMzNksfgt1t9+/fb/btWDs8/KRR6u+/p6X55b//60Nk8rSZpg7e0rt3K5YvKx3DDzZ4kMC9UqF8SBnGcbs+9pRs+nuL+b49v+a58qkqoI888ZwzxcCO4Yne+uB5TmnzXVC48Kn6uQlx7NHnZfNAeMetN+oPTH9Ku65P6ndEPzlH697dsrnMnD1fOj7SJ90gPvjOS9y9xzmf1wZ/YK4HrguuzwknFpLHej3nlGMj3msfzz2aHr+Ig6azk973AZrZ+8JeW9sVPh87d6W4/drv/8z8jbJ9Z/bvKb6D470no+9ne0x7PuX0Bxb33z88UONzhtfp4b+B+CEQ99vWbTtUoWgtV17WSEaP/U669Xje8LFM3Gla33PxXP8H7mthfiwcqPcTBH8nMY2kfLmygh8Y0/tsmAYZvGXn8xOr63juVXt/pPd8gL9Z7br0NN8/3To/KM2uvtx8rl96bYg5bI1zq5gf45aHpzCBJZQ5XKupM1LmOE+aMsPUL1OmVFyfN3tPRN8r0edas0aVVN9JGBME5/fRp1/JLFWQW952g1x95SUm/70Rn8uAN96VQscfb77n8R305tvDzA92poK+2b81g97+UK675nLjej/x19/NDyEjPv5SrrisoVx+WQP5Uv/O933xTdssVWrPIzOfJ3iGnXLKSfK1TtNyywRViMG13oW13NkR26++OUwND6Pk7NIlnO87fOej3f4DB0zdeO53O248M+/du1+fhe4wz7Njvv1BXn9ruHPMeD6H9vs9+ns/nucX50DcOKYE/NAF9u4/HPxr/T/BpCPJeeqlClGw4ZW3xzynDZv+Cda46Jrgg116O+VTps42ea3adnPyps+cb/LeH/GlkxeL04YNm009/aCaevMXLDX7I0eNiWh3zc33mjHtStxj8nfsTDT1MBabt3vPPpPXrmsfU+fw4aTg56O/Dw4d8UWqvtxjdY9r85bt5jg3tWgf3Ltnv2n3v+feMP0uXrrK6Wflmr9M3uO9X3LyMMa6l94c3L5jl5OHcozRnec+3uTfQ+wmTpnptHGXY7vPs6+ZPg4dOpxmHXebqdPnBl8a8G5w374DTn17DjbP9om6ti1YYaw/TvjNybNl7nTMuJ9Nvcm/zzL1hg7/wuwvXb4mol169xH6A0OM88+1G512Y7+faPr6fVpoXMtX/Gn21Sri1EHe8I+/dq477tW2HXs65bhub2t92y/O1X0/P9LjedOnWj+cNh9/OjY4c85CZx/3xz3tnnD2Md6jyfW1QR+YMbi5xrO9ZNlq027UF+MixuZu+/QLb5o6i1z365x5i4OXNb0ziGsX7+ciq/eI/Rxs3brDGSOuM+6tlavWmrxx308y++57LXH3viDatrznYVPHftfYc7X33QOdnjTnYM+5V99XTV/r1v/tHM+W2RSfSxzfzcR+1/R7dUjE8XAvHdLvDtsW3zW4/36ZPM3J2/h36Htw4OAPI9pGj3XgW6Fy9LVm7XozhudfedvpJ6N798CBQ6bNoHc+ctqgL3DCC8zsOEeP/cnU/Wz0eJNneQ1652OnDura/Hc++MzJH6Dfv+CD+9L29+aQESZvwcLlTp4tsynG8GjPfqZ87bpNpn6vp1916uNew/VC3zgu2sVz7eO9RzPiZ8eZXprR90H0fWj7iv5eAQuMx/49iudvlO07s39PM3NPRt/P9pj2XrXnY1PcL+7rhfxmt7YNtmjTNeJvyqdffWfq4W+YbRudxvqei+f6o5/B74bGMWvuoqD9TrPf6ShP67MRPYZY+9n5/ET3F++9imNm9Hzw8WffGqb4vrbHwffOmHETzL69dkOGfWr25/0Rel7Cd7v9G2i5PPnMAFMnHt623+h7xY7Bndr+Y30nRZ+f/gBmzgefMXcf9jtbrYcm3/6tmffHEqce/g7gPvxt2hwnr82D3U2euy/3tj2PzH6ewBPHWrYi5RkGzwBX3tA64m+N+1h//rXRtMHYbT7uBRzb/fnJDH+cn/3bg75wXfEsavuP53Nov9+jv/fjeX6xbfFsZo/J9Bjod/9n7zzgfSr/OP69K1slIitC9l7Ze+9Vdsjob2aTTYiSLUTIlsoIRbIyiihEsinJ3vOO//fz/H7PcX7n/sb53d8l8f2+Xvee3znnWed9nvPM7/N9wsOjgsOfQmM0ultvHtXJnjWTulykUH59m41d5FC/r5lGt42bph+r1m5UZ1V4ZgCSg2caoa6yYvV6dW7+lztnNkrIhiUgUAPDIvN8eXMb1+LHjatU8a7fcMx+Qf0CKmxQfYRVrO0799CSL1fTXVapPOPGaFE4q9Bhlg8qhR8M76NmSRAXZsyKFy1MmXlGQQtmFmHgwjpDizSaVYZKsYEZCDd+tVeX4927jsXUcVgdwpOEOtcxYPNVO1Iof27qxqqudzhsjHitWLOejhw/obye4xFos+TP63hPuFaiWEF16ySr0HkTzDhjRqVQ/lzKWaXyJdRRq81682u+B4ZIZ7IXnlez0OtYVXobq/1B/uaZTMjLaVOquBazSis3aNSMMUYcoWao80LBfLmVWvbEaZ/RIZ6JCeOZ9dbNGvAIYAoVhvVfgTw51aUBw8YSrBfDCMnrrM6dL1c2q1OX84fN1SWyAE5+4Xf+WuEClMWUX6FyvHb5Z1StYhmlluTPdxGTPILv4PnnnjWeoqQzb5049Ze6pq0jJ06UUL0DvIeDvx/mmbZ0SjUMI7qepH7tyoZqFdw0alBTOYUmgzeBmq6ZCcqaXDmzc3yHXbxBVc68VhtlzVucn4oWykfHT55WM5ArVjlm7H1Z2yvJYWlJy1oXWGd+kmfstfibd+FPaz00qFNNqc3psLAcAd/lflZ9N0upEo4ZePM1/C5SKI9xSZfhRV97UIZDowRy7cYNw523H78fOqpuN+IZei0og/G+zGLn3dstu2PCz5wW/I5peWANB+f+1lE6DH/rU3/ypDU/6zjdHWHpF1pAdWpUVWUF3OD9wzYCZqWxrALfKv6SOL/vw8dOuAvK4zU77x+eW7LW1Mtp07Ka+Af05fJV1LnDWx7LdI+RubkRW9+PDtpuXoV7X+2D/E4jYR+O/4RQHyKtWOpRrWJpFV2KZEmVRtN2Zz2JWUtow7Ro2kDVgVAZ38PlP0Rr3tjlDT/+5BW4t0qhAnlc2j+6bMW7NIvWiNt/4EHZi+fIyRojWnI6l8kUzOcoh3C9gPM31NC9ib/fU7VKpVVw37AlfwjKdajzYjYV79edHDzkqG/eqFfduA239VjN1yz+8C/KyzZ03YOwSpcsqpYaIDx/v0Nrue9P+8Wcfvn96AlAEzSUN8J89DE/JjHGjRMnWkpCwx7w8PRRWj1NmT5HXRozcYZxCyqjEDTm0r+cxrjuLk6rWmlQcDDrYEUYfrCdwzhei6DDRCGGNVRQybXKxGmOtYAjh/ahdNwQhKChCwuIhQvmtjqn1Gw5cu36TUpVU6/5RIPZLPHiO1Qho6IizZeN39myZlS/eeSMCuVzdNiMm84fsOiLdQvuFtxb3eIcawqGjJygGur6PhqeVsE1sxGO+LzGA+KtcY/907DGFtKxxxB11P+gwtzp7WYuYep77o43WJ0QqkVgqMWaTjzzmJH9WcVmJo0eO4X/SLHAOofXuDKDvNOhJe9MS0oVGmrTeLdtWzXmRlIFt2mpXrUsnT1/geawWx03VHRbNKlrrF/T6TEfHyZXczyB/IYKKvJroQLR86s5XLvfRUzyCOKxfgcJEji+A52GI8dOqp/tWCXbnXgbmHopRTIXL6lfelGdHz/pUIl2uWk6gXETq6RNnZLXBv3gcll/y/oivofpsxaqNc0oOyDuyg/t3nxMmCiB+ZTVxOJTVOSDzrO/eReBHT1xWoXpbgAlHZeXR4462OqI48RxP3gFNWMtQc5GVGgAeztr/vp96LBfcr4ffW7n3T/3bGKyk0djwk+nQx9jWh5o/+ZjTOoo+Hfnz1t96k+etOZnc3rNv7Hco2e/EaoD07Nra+PW0eOO/IayUpeXxk3+8Terafsjdt8/6va33mxAA4eNUZ2oJqa1y/7EZ3UbW9+POVw7eRXureWitX2AwVMs85j6yTwe7B6poqhQthS1a93IWL+OQesZsxeotY5b2eo8ltcUL5qfxkwg2vXrftr18z7lrwhbo4fY4a0c8j+7eUW7tx6t/o8cO6WcpE71kovTNCkdg7/HuK2iBWsO3Ym5jRJk0+6Jv98TOu4F8uVRtjM68prSb511QnUvNkROnnIMxKe0lG/W+skf/okTWusLR5sMXPz9Dq3lvt32i7t3INceLYHIiEi2Iuuh0/Bok/LfjW0/rwvTYi6YMIOJDuHXbEjG0+Jq7c/bEaN/vfqPUDOd4z8cQjnYGAUaLtqAgNkvFkZjWxCsRaxYprhxCx1lpOfcuYvGNf0D19DQNKdd37N7hPEfNOJ/5PVOeoE5ZuqWLlvDxm7eoqyZM6iRtAZ1a9gNUhkCOP3nGRr4blcqzJ3WZC8mpWVfr6URoyfaDsOTw2/WbVG30FF399w/7trLMz2e1yyYw53KxkTQYME6XlgNxppIVj2keo3bmZ2pmUUYwcGAw06uPOfyuj2sc1i7Yj7BEFJK7jiMHtqb14624bV+B3iWehVhLUkSvleWF8lbBTPdnXltWys2PrJ3/yG1hgWdTVZBpp5sYMiTwMDCw+LqKU5/r2P0U30/zNGT+PNdeAoj0OupXkpOOzkQvEOrBPNgAb5TDAK4k7O83QgMimn527n9SCpno0Vftx7PnY/+DcNQyivp0lqdupxvYmM7n8xaQOVKl6BmjepQBl6jiDwEA02Bir95F/HpxhmrIEeLHmuN8+bKHu36o7igG1p4H5leedBQOnv2vEv0dt693TwaE34uieETX+WBs++tNELMfllN1Xz6SH/Hdp6EFkf3fo4OzQfD+1KcMIeRPDxUKmcDGuV0/dpVoj1nvHgPBiqi3XRzwc77hzesXVv0+dcqBAzsLPv6O6pfy3U23E3wPi/F9vdjN6/6TJjTQV1et16zSlk6yBoBm9ngC7ZuQ+fg888c9Xdp1khAB3MdG5aBIaA36lcnaEeg3N/BM9DbduxWGld6AMkOb09lrd00e3KXOrWjI4m2UqL0D8oEXXZZO56ewnkU16szc6yBRLt0zbcbleEzd4N4Oi3pX06tfmIbP3N99NcZ1wGX2OIf6Hf4X2i/aLZP+zGIG0HBIRbz9U87FH+fHx1IyKqls2j8qAHG38rFnyiLprD8qo2C+Bs23J90quM1er0GFWerr2i0QrUCKq9mwcL6QcPHqpmxrh1amW+p37Cit3XHLpcGLyyMwXJtdpNKRzSPNi/AcBC2+sBieEjtGuXZWFIwG1AYTo1adlHXvG3bohw4/2FkGxZhMapZi8OFtTV0OnaxFdXYkOVsQAgV2dZ1nxvvC+/u+9ULVfD+GPs5xiPj6KC3Y0vAGLnFiPVuNuJkFlSsk2fMI/DGbDZUWbuwoR/IT7t/VSpEcxZ9Rbv3HVAGKSqyIYAPuYEE2bbDMdOqTkz/vuTONtSGoWKLzvCQd7soVSy8T7PA8ICW2OaqZ4xgrMMsdtURzX6sv5FfYaDFrL6J32+zQZu1PDJr97uwhhub59nZOBQE6qIYJNB/sCirVbw8xbd2vWOQQ9/XqtlZs7yiL7k9wirsn6aO9wmOG9Zds/LAkzc55pwZ7dCuqTJqhQ4J/MKQQyCChqmvvKs7N2Yr1zC8gu9mJedhqPVrgeESWK7Ozqq//4ZobQz9PnQarO/Lzru3k0ft8NNp8Hb0VR684Nx+adMPPxnBIG4Yifq3JLbz5KiPptGhPw7TsAHdjAEM/WwvJn1BDYLu2fsb16EJjW/1Pi8RWs519LWr17XTaEd35Zyd94+AFn+xWlkzHjqgu7LGDiM/sBKqxd23oe95O8b292Mnr3pLj/neDi63p89eTNCOg7poh9ZNqUbV8korRRvfy5wpg/r+J3w8S3ktVjifOpYoWohQ/8JyfKkSjqU5uGGXtwoklv/lyOIoi1DfmgX5BpIty4OBQvP9f+M3rCtDPuaBb7ShalYr7zUZOZxLw2awwUi0DyAoj+ctXubiL7b4B/Idxnb7xeUB5STWCURFBVFohA898FiP9QkKEB09dCCxBsqdyelqlcvQRxOm089skQy64zGRzJkcDc55C5fxWqV4BPPgn/PMIBphWsVNjdz2GaHUZvPkzqZmDnVccbkhibVqLZrWV9sTdOo+hLe/qM46+cG8xcVq1cB8q3kD7TzGR2w/gq0DPmZ14Z27flWWbqHOh0IOI7e9u3VQFnYRweUrV6krdzyhuuFuNBczrlhrhn1FYTI8BasTYl9Rd6pN/ib44B9HVOX11puNonnFulNsa4B4+7JZbb0+MppD04VcOTIrK7sT2HJcAZ5pxVoeWHM1C9TEYKWNDbKodZdYXzuX3yckL6+ZxNY0y1euY0t7K3mLhiaUiFVM9PrdfKb1peYwsUYN1tnYGAev+XtZNRRRKdeu8WB0/NWMryiLdTO504+1aFjDGJtcM2VIp5I0etx0wjo9zLSik9yGLTFXr1JBdXrNafbnN7aFwHYa7bsNUjNuzyZOyCqei1R+6s9bUWDNK8Tbd+FPfDFxW7FMMd77dSV16j6ItxhpwlYh0/G2IPsIpu9hddbdzLOOB3k5QfwEVKxIPvpl30GleQCLzXoLFu3O3bEzq3U3b1yHZ0ciOR99qVTv3uBBC2+SO3tmdZsN4VDdWhXpypXrNHVm9JlXb2G4u2cn70JFHOs2se1FSp71LV4kv5qx7/j2mzRkxFjq0e99wvp1zEDM5rwKt9Uql3YX3UO/Bv54D1CVxx7R+GYwyGMte+y8eztltx1+vspLQPFVHuAdQH0OAxSdeg6hPFzuQCPk35TYzJOwno3yEAOH/5y7QNiyRUtBXmePvQ7f4W2ahjrzW3Wum9GensbbM0Adv0zxQtp5tKO7cs7O+8eAGCwugzvWjefKnpW3j2qttiQb935/FY+nb0OtI2WV9h6sjYJ11u4kNr8fO3nVXRrcXbt46TJNmzlXaUyVLV1Eae2gnYR3oy366rV5sKiKpTMYOIcU4Y7m4qXL1e+SRQuoI/7Z4W04juUfmAGsXrWCKqPDwyMIa0yxjvezBUupXJkSpPNHLEcbo+AwcFi1Ujkuax2dYXDzJmi3YlYfW0i98WZn1Vn+lddtXrUMuMQm/5h+hw+zXeiNkdyLGYGgoChWkeVK9GkTZFSr6Gv6aL3v7nz7zt2q81StUhl3t6kS70uIDubqdZs8djAxy+dNoMI5lvfxgjn+dwePUk7RSSj6WkEerT2qzlEY6L0isWWCWaC6ig4m9skbx+FMmDLbUDPF1iFK7dZDBWYOB7+9rR3AGoORQ3rSDN6vE0ZuUMGY5axpi40/2TgRFp/XtSwkN7sf0Kcjde09XKmJ4nry5C+qrUqwlUcI1qiy6JFldWL55+k9fvOdY+aoSqVSFh+O06qVSqvtUKC+hUaBL2nG280cOnyc5sz/XP3BPbYqgfpPsDOdaLQOYlXf2fO+oB7vvqeCxPOAPdZNQN7jUffRvDcXGtwQqO9ie5bKTuND1mfFXp9Qb5vGnQS9pg6dGuxBpaUlr8fE1jBYIwwDT5iljU2upbhRBiNRK1etpXU8I1d67RIKc2pERAaoeo8G4Ue8bnUSGz3CVhoQMPt43HBKzZ0UiK/vAm6s3HBNi6c8ou97OuowEyZIQJM/GkzD2OT8+MkzDOfoXPfo4ngPnuLo26Oj2g8P2yRA0FAZzLPQntzrwKH+jm09YMIeAiNhH/I+t5g9h3jyD4Nl2GYEarLYQgmCrX+w76rOp1a/QUEhyp27f1B/gTwTGuYz78Jd327tqc+gUTTqo8l0h7dIgSp9TdZOuHXrNs3n/eV02VawQF61l642MuYpDe6u6/firZxCWrwJGGDfusH87WK5wTx2jDIUM1BYR6fFzru3U3bb4WenvLRTHgwb0FVtyYF9n3f/sl9tMg9tg008kONNfNVR1nyDsPQ1fXQXfkzypA7HGi6MgkGwLOXD8dO0M3XENk4oT6ANc+f2Xe58LlfLTnATZcq4D4a42Elw8cwn7so5O+9/FA+8QTBYCUFHpd1bzVTdyFZVjQEod9/G74ePqTpSzzyrACz/Avl+LEGppSJ2ylOrP/O5/u5Qb8Iew9c846fLt+xZs9B7g7qZnfNgbkE1AGo2ylXQaVgRnc6krOGgxQ5va57Qfr0ddZnhzQ3uDeD9t8NCwtQg2aLPl6n6GeV8v17tjbzuLqxgZznpK3zzfXfPoa/po9m99TcmNtDBRN0Mbr4E2ldqEJ+3hYGROeydDo00bL+mJTb52/kO3ZXvSIu99ovneks/jxwfPgEY9Ay6fvNuFDZ/TZXC0dB9+NFKDDEhADXbP/86Qwm4wEjqVHeKSTjwA9UoGOnQo4YxDcebP+wBitF5NLLQccL+duhQQc131doNqrH2xYJphiEiT2HBIA+bulYzH9oymSe3/+Z17Hl5ga3bYj0G1GQ9Cdhj8bPZOqnZ7c3bd9jwwQ3CulY7AnUWrAVJliyJRwNKiBMGA8zrTWOTK1RkI9goVSJnZYYZdfP6JzvP4c0N0n+f93Q0Nzi0+9j8LnSYMTniPWAt5EvcYPX2/nXeX7pgKq85eolO/3WW8/aLqqPmT7zYJ5QttPn9Dd9jlcDTbA06efKktmbo/UmTnbwLNfFnEyeIllcxe/k8z2KY86g/cT8Mt2B18cJlZpXMaES6i8fXu7ebRz3x03nGTnlppzyAYbJ4bBzJbHjE3XM9qmsPM096egaoakKFE2rtdsVazml/vt6/dufraP42Br8/QXX8N6xa4Mubuh9b34/dvGorUewI6YJRIMysxZbEFu+YpAd8zvASBWhiPK7tEQxeYN/eiWOGKqvhvp7zBrddeK2cyztatmqdGsR0F0Zs8o/Jd4jnic32iy8+cj9mBKDSHIR9MC9evCwdzJgxFF82CKBA4r3ueNQvjtqSYBzPoq79fjOtXvqpDd/iRAg8OQR0ZwEdTGxxIyIEfBGQ8tIXoSfvfuO3utKrmdLT4D6dn7yHkyd6KATQWcOAJWxxQJYtnOpzEAmDWg2atadUrL48sE8nXrqQjLWeDisL/tCK27JuqUvH86EkXAJ9IgkEh/AazHCeGRARAg+TANaZmEeKr7NaVr1aVR5mlBK2EBACQuCJICDl5RPxGm0/BEb+I3l9dZXy7pdx2A5IHD5VBKbNXKRUkrG8Zjwvh7KjoZCAtcxaNK5Po3j7tNpvPFheA3BYFhCbM89P1cuQh2WtNlGRlWwgBISAEHhkBKAGd+ToCTYfn1kq70dGXSISAkJACDzZBE7xEqqLl66yvY20ttZemmlcuHSJjRD+zv6vsDGm5JQtc0aXSQGzW/ktBOwQgHWfoKvXbkXBEqWswbSDTNwIASEgBISAEBACQkAICAEhIASEgDsCah9MbQ3QnQO5JgSEgBAQAkJACAgBISAEhIAQEAJCwA6BCDZmGYx/IkJACAgBISAEhIAQEAJCQAgIASEgBAIhgC16YrBLTyBRil8hIASEgBAQAkJACAgBISAEhIAQeCIJ8CLMYN6J/Il8NnkoISAEhIAQEAJCQAgIASEgBISAEHh0BIK4bxn86KKTmISAEBACQkAICAEhIASEgBAQAkLgSSUQERHBKrIygfmkvl95LiEgBISAEBACQkAICAEhIASEwCMjEBQcjBlM6WE+MuISkRAQAkJACAgBISAEhIAQEAJC4AklEBLCHUzoyYoIASEgBISAEBACQkAICAEhIASEgBAIhEB4+H3MYLKpHxEhIAT+FQJ379+jy1eu/itxS6RCQAgIASHgSuCfCxcoIkraRa5U/htnkfzezp6/8N9IrKRSCDzBBIKDQriD+YSWo516DqFJ0+c+tq9v6qcLqF2X/rGSvnUbt1KD5p3o6vXrsRKeP4H8uv93Ffe0WYvcelu2ap26//3m7W7vP+0X23XuT+VrNKFzFy4+chS9Bo5S7+bfiPuRP6ybCE/++Rch37b4Xy8qVqEBde07nJYu/4Zu3bnjxrVcepQE0FBc8tUaervrAPVuKtZqrt7PvgN/PMpk/Kfiiq16IDbrpv8UQE7sj7t+pap1WtAH46b/15LuNr1bdvysyviz/5x3e/9Juzh15gKqVrcFfbdx25P2aPI8TgIXLl+RNuV/IDeEhLKKbNQT2sM8cepP+vOvs4/tazh3/iL9ceRYrKTv6tXrdOz4cbp9526shOdPILlzZKEXXniOpn86j44eP+Xi9crVa6qivh9+j0oULehyT04cBEoWL0wlixehZxMneqRI0Llav2GLyjdr1m1+pHE/DpGd+usMtWjXU+XbyIhIKl+mOB06fJRGfjiJerw7ksIjwh+HZP5n07Bj1y+Uv0R12rVnn9/PcD88nLr0GkqjPppMh/44SqVLvEYF8+emnzjMFu26qUEAvwONJQ8YtMRzPY4SW/VATOomvDNw8TTQ+DjycpemtKlfooIF8lK+PNnd3Y7xtUfBBwNlbTr3c0njtWvXHG2De4++beCSkEd0kidXViqQLw+lfzn1I4pRonnUBMK5rEF799LlwDW/HsV3+aj5PC7xhYdHUqiswXS8DoyY+zKpC7WZkEewZtVuPHbcwQ1W2T7MZ+vb/W2q26gdjeZR32nj3zPy98Rpn9GdO7epX8+OFBYaalzHDztpd/Hgx4mdsCMiIygiMpKeCQ1zCdmOXxcPfpy4C7tVk3peQ3Dnx+rBjhurn1XfbFSXUqZ8iZZ/vY7ebFTH6sTl3F0cj+qbcRe3S+KcJ3bdYaa/Q7dBdO/efZo/ayJlyZjeCG7Ooq9owuSZNOLDj2lg707GdW8/7MRrx401jpj6sfO9W+PydG4nDXbygafw3V1f9MUq2rZjJ1WvUoEG9e1slF0XuUHRpmNfNQiQP18OSp8mZo1IO89kx427tLu75omPp+s6DLtpsOMOcUF81QM6bk9HO3E9DL+ewsT1QNJkDfelFC/S1LHDrJeNcztx2XFjBGj6YdefXXemoGP1Z2zFbyccu/n27r17FBYWRkUL5VN/7h7Yblh20hVbbtyl007Y7vy5u6a5+Pru7cRpxw3S4C5Ou36tz2DHn533aicca9xyHhiB4GDeBzOSG9lPg1y4dIkatuyiptYxswa1wDLVGtPKb74nqAqWqPi6Oh86amK02QuomXTpPYwKlaxBNd5oQ6PHT6drN24obIeOHFf+oAqq5fjpP9W1AcPH6kuEj6B243Y0aMR445r1hzkepO290VOiqb2ikYU0QmUM6UHab966bQ2KoErW/d0RVJKfC882ecY8+mDCDKUOaHZsJ06ze3e/X06ditq0bEy7dv9CUNOC7D/4By1b+Q1VrlCGCubNaXibt2S5SgPS3qxNd5o1/wvFRjsYM2mmek/6HEf9rlasWW++7PIbao3o0Gou4IewzDNRiO+jSZ8qfiUrNaS+Az8wwpj/+QojXVXrt6LPFi1z8Ws4dP6ACg7iOHP2nMstxIH3puUOzyqPHDPVSFd77ths3v6Tvq3SiHypBf7HTZmt1LuRDnCCH6wLMou7fPAVdxSRJtzzJsiLX3+znvLlzU1N36hDJ0+dooN/HHHxop8PaUWakA6MkGOWGnkG1wryNaiV7tl30MXv7r0HqDV3BDCjAX/N2/YgqFJr+Xz5GpVOpNX6t/e3B+585RWdRsyWYeQeceH7XPD5Sh2V2+MP23fRmTN/07AB3Vw6l3D8ZsM6VLVSOe50f0s3bt1y6x8X7eQ3X+/eXeDIT/2GjlFqofp58F59iZ3vHe8MedEsmiFmdLXg2fDtoLxCGpA/zXkW7v7mdKJMhGoxype+gz8wNBgm8HfYoWt/FVy7w4h/gQAAQABJREFUzn3VO7arho0R5alcVmXLkpn69+rg0iF64flnaWj/d1S4X6/+Xh112bDaMguP9Ndt0l650f/slHULl65U/vDc4IUBBy0t2/emWXMXq1PkW9z3JLiH7xhlbrnqTRQDlE9ofKEOgP/qDd7iGb/F6po5HHM6rfWNdufu+3dXD6AuQj2ENOA9degx2HhPOiw7R3OakHZz3bTxhx+pdJVGKhhosuA+8hXE328AbFDugZNZJkydo8LVy0Bu3r5DH06cYeRRPJd1GYbd/G6Ox5qf9Pfhq4zx9pze+NgpR3Rewuy5uzoBTMB83/4DtHvPr+o38r9VUHbDHeo2syAv4TrypzfxVkcu/nK1CsNcTui2Ed4dRLOEVgPqEnxjWNozZcb8aGtefeVbHZZWCy9ari4dOXbSiMNcL9sNy9c7xjOYvwO0NdAWQ140izdOZnfW377qO7xTc1sB/nV+1W0jT1yscelzO89jduOuPPIWp9kv8pi53NBpcHc0+/PE+RZzR12Jck3XQfiezIK6E/UA8hraI2ivQMUW4u27NIchv2NGIIrbmdzHxHj3ky0oQNHg/efceXp/SE967tnEqlMD9ZHBwz+iGzduUesWDSlNqpSqYTnh4wcF7U4uDN/pOYjO/H2O2rZqxqozOWjx0hXUrc9wusdWkjJmSKfgbdzyowFx247dhLC/50pWd3AOsTrs6dN/UfYsmQx35h9olCOe8xcuUfu2b1LFsiXpq5WrqXvfEUYHDAZhunKjDo3fEsUKUbu3mtGRoydpwhTXygSNxbe79KN93FhvWL8G1a9TlZZ+tZoWfb6MLl66bERrJ07DsY8fLZvVJ8yGfTB2mipwR300jeLGjUfdOrU2fM6Y+zmNnfgJxY8Xjzq83ZKSJHmOJk2dRZNNa2Vv3ryl3pPhiX+gQwSemHHyJMNHT6bZ85ZQtqyv0jsd21B+7tQuWPwVfTJ7ieHlCocxf/GXtHP3Xmr8ei2qXLGUuvcpd3I/mjCdnn/uWerSoTW9mvEVGj95Bk3nxp8nucsqR0gT3olZEMeNmzeNS8NGT6Kly76mCuVKUr/enQkN6K6s/odKD2J9Xvifu3Apfb9pO9WrXZXKlCpGP+7kAY6eD0bV0fh6h8Ow5oP3Ro1XabrP+dKb/MIdwn/+OUdVK5bmfFZMOf3aOaOp/ennQyc8b+7s1LBBbTrMgyn/e6c/9RnwPr3ySlpq3ri+Ulvs2G2gsW7xyPGT1KZDLzrFef3Npq/zd9WYznJc7Xkt3XUnlwyvvEz1+dn0X92alVW6wTPZC0lUEuzkFZ1GdGb0IAc29x0zYVq0DpF+Lhx/O+joTJcs5l5tu1zposr574eOmr25/LaT33y9e5cA+QSVY/tuA+ibdRt4YKaUyovPJU5MeK8ohzyJ3e8deevqtesuwWiGmM2HYGa/94BR6tspkCe3+k5xHXn2p59/xU/VGHyzXQ/au/8g54F61Pl/LXkA4SD17P++6hiU4rKpdAkHwwplS1GHts0pYcIEyq+vf3/+9bfSeoDquFXrAX5z8Pf985avqVO75iooXTbcsgwG4Lu6fMXRkIBDO2UdGiMfjp9GadOkpHd7daJMGdOp2WwMQkIav15TlWn4jWdq3LAWfroV/R3v+fU3atqorqpbUD7Vb9aBDvx+hBo1qKWuTf90Ls1bssIIw1d9A4d26wE0pDp0HUg//rSH8I2hzDvAA3/N23b3y7CYL3avsgZAR+f7SMz5FWwyZXxZPZO/30Cx1/KrsmnLtl0GE+TJr1Z+y3Vteno2USJVp/biMmjhkmWUM1sWert1c7p48TL17DdcdQC0Rzv5XbvVR2t+0t+HrzLG23N642OnHNF5yVOdEDduHMVcPwP44xu0Sob0aenZZxPxwO9al1vrN2xV5W+RQnldrptPfNWRtWuUV2F/MO4T1S6CX72OtblTO0azhPo70tyR2wCpU6WgmXMW0rjJnxrR2cm3Oqw+A0ZSRq6L2rdrodoT+rqul/0Jy9c7RsdYtwWR54oUzq/q4A5c/2nxxUm7sx7t1HfWtgLC0PlVt43081u5WOPDuZ3nsVUeOdtC1jh9lRvu0mQ3XXCHNtoF/u7btmpMObJlprXrNxG+Jy0oz1F3Iq8hf9SvXZ02/7Cd2y+jlBNv36UOQ44xJ6CUPa/fvBN18vQ/UeH3I56ovyp1W0X1ePf9qAsXLkfVfL1dVImKb0Qd+uO48Yx/nvknKvdrVaJatOsVdfdeuLp+j49lqzaJqtOoveEO4eDv6rWbxrWvVq5TftkIhbrWf9hYdX779l113q7LABUOwt+5e7+6Nu3TRcoN4gXrge+NU2nS3Ks3aB3VqMU7UTdv3lb3cZ1HBZWfzVt3qWtfrFirzr/ko/aH58OzIS4ddt9BH6rzw8dOGu6QDrjBs2i/duLUbu0cuVGg4qjftKM6Llq6yoiLO+jqWre+I4xrCLPf0I/UdR5dVdetXOBGvytzeOb04L19/tU3UTPnLnUJG8/atHV34xrOC5euG3Xx0hXj2t9nz6v4R3w41biGsHsPGK2uX7l63eW6jnf5qu/UfTNj3EMcyHfaHd5N647vGuc3rt+Kmsp54fiJv9Q16/O6S6NOi0730mXfqLiRBh0P7iHvmvOBvmc9Ik64u3zlmvKP/Ip08ii8EZ5+vumzlxjXxk6apfyNmzzbuDZp2lx1be++Q+oaeIwe+4nxfIh75TcblJut23cb/sxpmjx9gbqvn8duXtFpHP/xHCPcYydOq7Cs79McX+OWXdW3Zr5m/q3z28zPXPOTdmM3v/l69zo8feQ1JVEoJ3gmxniev/52lFPjpzx4Ru1eH+1+79a8Cf+aoc7HrDqt+K1d/4ORBpR98Atu8INyFPkHadVpwLXPFiyL0t/LD9t/Vm52/PSL4Ua79XZc9/1W5W/Dlp9s+dPvylo2WL8rO2UdyiY8l/k7WLB4ZdRPP+8z0oK8DzfengH3wAvvX/PAu4U//Olr167fVOf/e2egER784c9bfWO3HhgycpIq73RZg3Tpd4dv2dMzxIQd6j482+Tp813C9fcbQP2HMvqd3u8Z4aDcQNi63tPlycKlXxtu4E/X8/q5wNFcFuO6Nb9rt/pozU/ava8yxtdzuuNjtxzBc1jrLWudgPSjrmv5vz4GE3fPyzPmiuXvfxwz3MFfxVpvRiE9moP5aLeOxLeO94RyQZcjK1ZvMMLULNt26u8Sl24DnDr9t3JrJ9/qsFB3mNOqr+vyzJ+wfL1jlCF4F1ec9Sbi/XTuF6reRb1jl5M5vfhtt76zfpfw6ym/WrlY48S5r+eBGzwv/ryVR5q5NU47ZW5M0qWfuVmbHlF3794z3j/anfgOdZg80aPaIuY29eDhE1Ue1dfcfZfavxwD6xPi3QRjxP9JFWz/0OJ/PZUK4PSJIwkjeFYpWqSAsa4SeuqlSxZVC4jhDqonUKVrUKcaJYgX1/Bao3JZwkjt/t8OqWt6tBAzQxg52/HjLmrRtIEa7d7+427lBmp5mTJmoBTJkhrh6B9Qt8XsJkbz9nGYGFnCXxKeUYMcPnZCHQ/yyDdmBWtWKafO8Q+zsVUqljHO8WPfgd+V4RjzGqW8ObPSK+nTG+7sxml4sPGjSMG8hBmLw0eOKhW3OjUrGb5+O3hY/W7ZtJ5xDT9aOM/3H3Dcd7lp8wTvrU71Ckq9Edbytu/cQ0tYZecuq6eeOeNq6KlQgTxqFFwHvd9plTIDj4Jq7jimYWMPkBMnHTON2r2/x4L5ctPOXXuU+hFUhsLiPEOtmzXg2YsUHoPKnTObSxpL8WwOhCtgdTzw+1GVD6qZ3jtG9jFL6ksw+/ntd5vVzGiiBI5Zpao8k4vZw+07HTNU5jCKFMpjnGbP6ph9L8qzDFoKONWftco48ly3jq14JvJ5NVMDFaZtrFIL+ZtnMq2yjWdXMItTp0ZV0s/jb14paTIglZa1ENKkSUUn+XvyJDCGFRoW6uk2xeMRT4geFbY6tJvf/H33iRMmpLc4b2Ad0fGTp9Us7IpV36vovVmBtPO9W5/B0/m+A44yLXGihMb3cPD3wzxLkI5nfn9XI+Yvp02pyr/FS1cSVOOgLouytXGDGpQwfnxPQft1Pc4zYS7uoSYFFSf9B7Vxu2K3rCuQx6HKP2DYWPXsKMtfr1uV8uXKZjcqF3f4jjUPvFuUv1BL19fix43L2gE56foNh8aD3frGbj3wM5djzzBHaO7osg11YvLkL7KBueMuafV0YpedJ//+fgNxnnmGKpUvSRs2bTVU1L9d7zBCVq60Q9ti/29/qPKvHs/KaoE/zDCjHLMuJ9BuAjn6KmP8fU6kxW45Are+6gS4sSPVKpVWzr5xqpSjXIFqbY0q5V3U0c1h2a0jURfUql6JpkyfQ+9/9DEVfa0gVa0QvU6qX7uyS1yNGtRU0WFmH+JPvi1VIvpMrQrE+c+fsLy9Y/0dQOsmobPeRBTNG9amtcs/I9Q7djmZ04ff/tZ3Vv/uzn1xsfM8dssjHb85Th2+rzat9quP2p83ztottPhCgkP0KWvNFFbfv9aUKsSG4dAWuXP3rtJggRrxkeMnlPtzrCko8nAJhIWGsZGfJ1hFFmsCtXhaa5rYoroV39SRPHritPLurjOQ7uU0Sj0VDgoXdDTC0ZCGhStI8aL5ueD4g9DBbNaoNu3d95tSF1Q3Lf+OHnfEgyl+/Fnlb1bPhRzn9KRJndJ6m1K+9KJxDYuZ0VktXiS6+l+qlMl5/c1J5dZunEbANn+8Xq8arft+EzXghpnZINKRY6dUCKlTOTpuOrg0KR0drWMWC7T6vt3j+k3beM3TLDUgAD/oiMPA0AtJHCqXOhw0RMyi3/GI0RPNl43fZ/+5oNTyjAt+/ninQ0vCJwb1OPwhPVDpqFOjgkvhaA4WjXuzxIsfT51GRUWq40m2kOwuH6RInszsze1vqHKDCxpw2AICcuumYw3v2IkzqYSp84h7UC/Rog2ChYYE60vRjli3CDUVcz7GYIw7QcekZ78RauClZ9fWhhN/80rCRK7ql/HjxaeoyCgjPOuPnNlfVZ1sTwv/DzpVY7NkzmD1apzbyW/+vnuoO02ftZBVpL9S7wiRWfOvkQDnD7vfu9Wfp3OsY4Jg7aQ7ucYqthjUGjOyP6u7z6TRY6fwH6kBpQ7tmtFrPIATiGTNklF55xkWKpQvlxFUh7ffpNvOteYfjJtKcXigxq7YLeuqVy2r9tCbw9+pzr9Q827RpC6hg+ivxI3z4NvRfq1qv0HB/C05B3l1WeSrvrFbD2BtNcTdu4wb58GAqU6bu6Nddu784pq/3wD8VOcBVKj/b9i8gypzZxMDYlgXrQd5jxw9oco/dNDMAguwkKPHTlPypNEHcs1u/f3tq4yJyXMiDXbKEbjzVSfAjR3BADesrK5eu4E6tm1G3274QXmrzoPmnkTnSzt1ZLu3Gql3h45++zZN3Ab5UgrXeiq1s/1ynAdzUZ75k2/jxHEdiDJH6G9Y3t7xEWf7ROcxczz6tz+ctB8c/a3vzH49/fbGRcXpx/P4Ko90GsxxxrTcsMNZxxet7e4c3MTaPwjWHA8ZOUENjBp+PLRF9H05xh4BTF6GPqnblGhMn0wZTZ14tLtrn2G0cNZ4l5kh7cbTUXd+zp+PPtqBUeG8ubIrrxiJLl60MLFaGLcVItVaRIxoYaYH66nWfu8oxEt7GG1L5Sxg27ZqynriVaIlJ148R0MFHcT9zhkGsyPz7AY6dS+nTet2i5ZTpx8Y8rAbpzkeO7915yPE0glJndrRkTx37iIlSv+gQ6DZmjuemDlCY1s3IC47F2V7ih8jbb36j1AzBOM/HEI5eJ0rGsEwPIIRTG+SMkVydXvahJGUPl3aaE6fTfwgra43HY0bGHfQggrt0qUr+lQdU7JVwtFDe9P5i21oz68HeGZ1lbKCmYQNlpQtWcTFrd2T9OnS0MrV37kwgt+/LLO17sLTxgBgil93tvURFTtG//TMpjv/vq5hHzI0zpGXy/NaRqxnYzVPqscGY8yC2aHu/UaqSx8M70txwh50GPzJK+Yw7f7Onu1V1QjCerScvHYDo6adew6lF5O+QCOH9OB1pY6Z3BzOzo41XLv5zd93v4mNpXwyawGVK12CB6XqEGbVUbbAOIInsfu9a/8YzTXLpcvXzKeU6qXktJOvrF0x3+U6TnjBvvqu8BuzenM/GaNmWnf+vI/m8npnrGGCPxjjiamgAYwBiR08s43ZAS21nFobMN6BDmYe56yi7mNEf66r2is/k2MAzlf5CtadeS1hK15Pvnf/IdWxQWeTVX2oZ+cHAyBGwLH8w259Y7cewJr4FDxb+f6QXtFSGhb2YOQ/2k3TBbvsTF5cfvr7DcBzHta2wSzrN9yxfPbZhGqwxdwBgq2E/Qc2uMSDk7PnHIbQUqdylOm4Fj1fuOZ3uIkNiclz2i1HYiN95jCqVymrbE/AEN+abzdSzhzZvGrU+FNHzl/0YD3xZwu+opGDe5qjVr8xaJv1VcdAEi78zeeQVDzYjPIsNvItwovNsFJzuQgxGw9SF0z//OFk8kb+1Hf+to3M8Zh/23keu+WROVz9O6blhp106Th8HWEA6PSfZ2jgu12pMA9WJnsxKS37ei15GijxFZ7c95MAtxfYkqzn2Qg/g3vsnENdMx+rKY0c2lMZDuC1StGslXlLNAyOYAZhJU+ta2M9cI+FzzCSkp0NTmgpxdPz2Jtn5ZrveM9Hh9pGscL51O1JbEUN4WTO5H5GBA1bNKr27P2NG3AJVQMNjTQYa1nOHYlrvM8lJBt3nDD7BAtbWmAYBA1Ts+TMkZm2bN2hLLnq6/CjRwZxzW6ccIsGeKCSI4uDle7g6PDwfJBszsY8Khk8I9SNtXzPI9ne5OSpv9TtRq/XoOK88B6dSxjTgeERX5I9q+Od/PzLAYM72B87cYpH0LfTvfuOGWlrOKmdM6+bf9hl3PqZjQch7VrQgIAVyt37DijjNRXLFqcPuTMF2bZjj3bm9xGqqohn0dKvDb8YZPj2u03GubsfsKQM9W2oMcEU//hRA4y/cR8MUV7WscGHQOQYz8Yjr7dr2VCpTWLGZjcbOrEKjEAd+uOwsuSqKzLtxm5e0e79PRZjFVTMcHeHRTlmgtkpqNet37iF6jVtT3Pmf65G+WH0yZ3YyW8xeffHnOrYHdo15Y7vq6pzeYK1ETAb4E3sfO/wj28L5YK2tAfjKZu3/uQSNDrfEKgY4zvQf1u2/cTl0wF1DyPDsEoN42npWZMDaqRd2NAP5Kfdjs651oy5zZ0zs2AQRqswma+bf1etVFYZtpo+e7H5svqmR7ERMUi+3I7BvReef06db/rhwXOA/U6nQSLctFvWfcmND5RPUGEtygZPhrzbRQ3Wbd76oHzVs/iaoYo8lv7ZrW/s1gO5smdhLZvjamBAv0fUL2hkmQcbvSXfLjvd0b9tsqgZk28AacHAYs2q5VVZtWDJSlWeFMj/YDY7ezZH+bd5+4N3jny1cs336rtOzR1riJ38rhwG+M/Oc7rjY6cc8TdpMATjS7QRs495MBDLWWpWK+/Vi906EpbIYUQP9Uv7di3UQKP5HelI1q7fon+q46pvHIMFWbO8os5jI9/qCGIrLP0dfLN2k0tbEM8HTSAY7bPLSadNH+3WdzFpG+k4rEc7z2O3PLKGjXMdvq82rdWv9ueNs9WPu3NMUCBvYw9lDE5CuwsDDrt+3uvi3N136eJATmJMAFqjoZ5UR2Mc6mPosWSRQmobDcwOTGGLpdoCoZ2kdmTVrCEjxlKPfu9TFbbsePb8BZrN1lCxzqta5dJGECWLFqDhfIbGYNHXHB1LdHRgbv/A74fYImh1Y0bO8GT68U7Ht2ioM57qlcsQfx807dOFqtNaprijw1qBLX7OWfAFDRw2hlrwWq0Xk71Ay1asNdRCdXD/a92EtnOHsh22bmCVNagMoGFpVVW0Eyc6R23a91J70qHBFVOBmkX1qhVo3sIvWI04gvLzRtZYb/rZgqVUrkwJypQhnQoaFksh3fu+R/VqVeGZv0v0nXMGWN1w8y9zJkfFNG/hMlajikehoSH0+bI1ahDAl4ohrI9ivz2sA7x1+xZv6J5LrSkbx9uZwMptDVabcyeZMqZTjRn4O3f+vLJAu5C3OjFLPFa3Xr5yHVsdXklvv9WEErE69orV65WTfHlzmJ369RtqY2u4ooO11A1bdlBSTucOXnfqS9asc1TssFBqlSIFc6vnWcnpq1u9ovW27fNcPLgBq7cwTV+ARw2xfhj7SpoFVjmhAoeR6n941gFbQ2gB/4zpX7aVV7Qff4+obCaOGaKs3TZo1pHKlsJMayoVDNTLIR8M76OO7v7ZyW8xefe5s2dW0bEBFqpbqyJduXKdps6c7y4JLtfsfu/5cudQ64Fb/a83r5UuznnmF2VV1BxYxTLF2DrnSurUfRBbqW7CFpXT8fZD+9T2HNhyCLPuoTz79emcRfTL3oNq3SXWEM7lbw+S1zmzmOGVNOr808+W8Hd4nmpXL0+hIaEc7mCVP5YumOpxH8uuHVrQCVYDnzZzrrL4/BovQcBM1JatO1WjAWqr6IBDECZU/rAcolPPIWpmEx0oq9gp67CmHvmSjfDwmtOXVScVg3K1azxY66fLKez5izVbMdVCsKZPn9upb+zWA80b16WNXD607dyfmrxRU9UXX65g1VNWj0/yfBfbqv922OE9oE5c/e33vGQjOS/RyE9Jkz4f4/KvGg8yoL7G+vUW/L7RONSC51/Alndh4brVm2+o2Td0WrBFR++u7Y161k5+12EGcrTzrbvjY6cc8SddsH7+BVssn8ntE6yHzJ0ji1vvmKmHyvHqbx11Eb55b2KnjsQA/JCRE1Ubo0v7FpSAl3Ws4g7/e+9Poi8XTjXWHSMeaLgkiJ+AihXJpwaS0SaAtXTEA4mtfBvbYXXlNhragl15B4HabPPh6vUbNGb8J6qdgLRjYCQmbYmH2TZSQD388/U88GanPPIQPFvz992mdefXV7rsbHmFd4H17dAgRJsyBatlb/5hp7H0Qcfr7ruENoJI4ARCeXIhNJQ3p30apE3LRmoxNdbB5c6VhbJ4mE20soBBnVu89mc+79/47uBR6jbUC7EJOwyraEnKsza6M1mAG3JaoCaLDmbJ4gX1JXXUI+H6IkZZ7ty+y43t5UrdE9ehJoSZJcwSQBDfhA8HcSE3wWi0Z341k9pKYDJv96EFamYzprxPXyz/lhtJe7nQT0jDBvbiD+xH+u33P7QzNbLjK84wbjhAIp3r/wzPHn4EOWfEg4JCorkYwPvahYWEqUYItkzBLBIK5H69TI0CbqBiq5Bp3LDGnnN4vuGDenCHcxgFQUfPjUDFc+zogarBod8RChcYGTj0x1E3PlwvDejdgdd0xaEVvJcpKjtIrpzZaWDfTi6qm2ZfqKTH8gzg4BHj1H6feFfv9mzPHYIFpNtCz4SG0Xu81yL2TUXFBMEzY3S3cvkS6tyaD9RFD/80W8wKfjiir9rv8UfuJPz511nejqammrnFmjhPsmbtRjUbgC1crIKCtnrlcmpLFcyGunt/Oq06HdYwcN6Mt2Q4dPi4mgXETCAEW5XMmL2A1SWC1fkvzpkwGNDCthBmwfYQ6GDaySvu0qjD8pRX9H2oeE4e+x4/7xquhDapGWEMRlzkGU3IbdYM8LTuzk5+s/PudVr0EVsgYT9ZNKwxIASBafUNm7cZ7LRb89Hu996qWT3WYvhTVboY3YVaP7YYQZ7RM44wYDH5o8E0bNQkZQZex4PvtEeX1uoUjalBrHY0e94X1OPd99Q15H+opyMtEJSHndu/pbZQwvrz7FkzKrU4bUCJCxTlzt0/5MXRw/rw9gWLaduPu5XRELhDWdCtc1tq4jQKov0OG9BVbee0bcdO2v3LfjUwBa2LTdy50mKnfO3KBiHY2qsqe7QmAjrV5q2WSvFgX8VypWjlqrW0jjs1pdcuMTo0Oi5PR+uyAXfu7NQ3duuBzLx9yHguFyd8PIeGvT9eRYfyB9tDeJu10t+5Tp8ddnDbt1t76jNoFI36aDLd4TIcKs6+yj8dh/WIRjdUN2GABmtjzYIZZuTRIe9PpCnTZqtbyH/Ib5hN12Inv2u3+oiGqVnslDF2v3V3fAKpt5BOc1ncktcKYwkNjOzg24aGiqf0V+NBbHQwkZfNRmvMz27+7auOxN6PKFNQLuh2Uf/eHdUg3pRP5lOvLm2M4Pr26Mhbk32mtmHDRQwwD+bBa83eTr719FzW64GEhbSZ6xF8mxhMW8QDoliSA0EeHcntE512X5yUJzf/7NR3qLN8tY2sz+8mKuOSneexUx55itNuuWEkyPnDV7o0a6s/fa7vD+jTkbf1G66WJOEeygjUp9g2LsTZFsF1d98lrosERgA2Q4KusAn6q1dvUKoUsbsoPrCkPZ6+MXv5PM9K6jVrDyuVmLULZutYUGvyJGhAQX0zqVNFzOoOYeg9BXEP6nA1Xm/DYT6v1k65c+8pTqyXM6+Rs/r19xzqTGd4XR5Gus0j0+Zw4OY2G4yxU/lpf/DzJ+8BmoAbyZ64aLeejqd5HWMSZqoNSnhyZ76Od+GpM6LdYTPmGzdvxJrxCev7RTwD3hurGg2b1y71K/06jbF5hBrkBbbUhrW1VsMm/sRjJ6/4E547t/g2eJsXpdaD99/wTeyBmJ5mTh7p0RATwrGb3/x999hf9zRbDE6ePKnLyL+7tOtr1vzg7XvH90zcv/NVjmFWAmuOXuKK2dM7vMrqqJG87tyTOjHCuH79pst9f8sTxBHGA6EY1PEmMDCFDqzZsqA7977KV6QZa8OTJUuiZkjdhQEVWRgxCGS9srtwzdfs1De+6gEdHthcu3ZDqYrpBpi+58/RFzuEBdVprF3HQIEWf78BqLi98WZnisvGnLDW15MgL12+dFU9lzc3dvK7J//+XLfznFY+dssRu+nA9wIDU96+b94KSe0bOnHMUGW12m7YcBeTOhL+VrFhIWhfQXshLdcLp3lgFAYK0UH3JLGVbxF+bIaFbzNhgvhey+eYcLJT38GNv20jT3z1dTvPY6c80uFZj3bKDasfnNtJlzt/5muwKs1b8Hhtb8K99bs0hyG//ScQEhpMQddu3Im6zBWCdDD9B/i4+oDKIWaGMJpYiWfKbty4TVCNmjrjM1YpakgdWjd9XJMu6bJBYB9vrdKiXTdq9HptastrHaGKgJlMzCZh5nXWFMdMu42gxIkbAje4c8x749JzzyX2OADixtu/dkm+938NvUT8EAhgLR/v/czLFubR0AHdje2LHkJUT12QaOijYzdouEOjZhmrr/oakIktSOYOpnkLtdgKX8IRAkLg8SEAZZBQvfXB45MsSUmgBCqUK8EzWRuVWqZWzUSYUO1tXL9GoMGL/3+ZQLYsGZRq8cIly3i9nGPtG5IEFZBe7zxQRfqXk/mfjR6z5rxc9j8j8r3/Z16VJNQHAayvavrWO8oV1uVVrlDahw+57Q+BaTMXKdVUqEpDffpRdS79SaO4FQJC4L9PAOrlQTdu3Yu6ePGyzGD+99+nyxNAxegXtqKKPdOg3oZ1bZl5Xz9PKqkunuXkP0Hg+MnTbCn4sNpGIV3aVJSNrcv6UiP8TzyYJNJvAvK9+41MPDyGBO7eu8d2Ao7Q888n9mgE6jFM9n8mSad4CclFVinOxFsg+bP8JDYeECqI2MMUVq+lnooNohKGEHh8CWCP56Cr125FwWqeqMg+vi9KUiYEhIAQEAJCQAgIASEgBISAEHjcCQSHBFFwFFa/iwgBISAEhIAQEAJCQAgIASEgBISAEAiAALZHDA4xWXoLICzxKgSEgBAQAkJACAgBISAEhIAQEAJPMYGICO5gWve8eop5yKMLASEgBISAEBACQkAICAEhIASEQAwJhPI2JcHh9+/H0Lt4EwJCQAgIASEgBISAEBACQkAICAEh4CCgZjBD2MKoiBAQAkJACAgBISAEhIAQEAJCQAgIgUAJBEdGRAQahvgXAkJACAgBISAEhIAQEAJCQAgIgaecQDDvgxmMzTBFhIAQEAJCQAgIASEgBISAEBACQkAIBEIgIiKSgvHvSZUINpO778AhWrN+M504/deT+pj/+nP9c+ECgbXIwydw9fp1unXnzsOPKIYx3L1/jy5fuRpD3+LtSSBw4fIV2rBlB23e/hOFR4Q/CY8kz/AvEojkuuXs+Qv/YgokaiEgBISAEPCHgGMG0x8f/zG33fsOpxbtulP/waPpu43b/mOpfzjJvXHrFjVo3snrX/d3R6jIt+z4WbnzVrn/uOtXqlqnBX0wbvrDSbCEahC4fvMmla3aiJq+1c249rj9aNe5P5Wv0YTOXbioktap5xCaOO0zI5nWc+PGv/jj5J9/qXyOvPy0yviPZ1NXLi8Dld17D1Ct19tQj3ffo74DP6AneQDTX1boeKPsXb/p8a6Lpn66gN7uOsDfx3to7qfOXEDV6raIlTr8zNlz6h1s+2nPQ0uvBCwEhIAQeOoJ8JxTMAU9mSqyx0+epi1bd1DVSuVo2aIZ1LBetVh935Omz6X8JarHapiPIrDg4GDKmf1V4y9Bgnh07PhxSpv6JeNaxgzpVFKuXbum7t32MmMGfwUL5KV8ebI/iuQ/NXHcDw9X+WvarEXGM8ePH58qlitFZUq+Zlx73H6ULF6YShYvQs8mTqSSduLUn/TXmX+MZFrPjRsP4ceOXb8ohrv27PMa+t2791U+x+zw0yp/nz1PR46dCPjxFy1dSXfu3KZPJo+mLxZ8THGeeUaF2eJ/vahN534Bh/9fDiCcv2mUtZevXHssHsNdGYOEnTt/kQ79cfSxSCMSkSdXViqQLw+lfzl1wGmChoXjHVwJOCwJQAgIASEgBNwTwBaYT6wJ2X+4koRUq1yG0qRK4ZYA1DpDfHSw7bhxG7jNi6jkkYTQENdXYSdeqA7xRqY2Y3I4ix83Lg3s3cnws3T5N7Rv/wFq91ZjetXZsTRuWn64S9NLKV6kqWOHWVw+OI1JGt3F8yBExy87buDSrjtr+OZzO2FEREZQRGQkPRMaZvbqM347YesAkVdHDu6pT6Md7YZl1120CGxcaNWkng1X9p3YSasdN/ZjJLKTZ+EG4u/3Zyetdtz4eh47Ydhx4ykeT37ROcmZIxvly5XNk1e31z2FZ3V89949CgsL85u7NRyc243TnV9f12ISth0/seXGV/rN9/+NOM3xFy2Uj/DnSWylj8vnkOAQT0EY1+2EZTiWH0JACAgBIeCWQAQbkPW3feQ2oMft4tBRE6lD1/4qWTiWqdaYDh05rs6xfm3MpJlUu3E7KlSyBjVs2UWtFTI/A9Ro+g0dQ8UqNFBuarzRhr76ep3hpGX73jRr7mJ1jrCbtemufkMNF+fwbxbcf2/0FHUJqoNwg45duy796bUytenzr9aoe3bS9jeH3aX3MJW2EhVfp76DP6Cjx0+Zo4v138ePn1ZpBa+q9VsRVKi06OdZvW6zvkQxSePN267vBcygomsWuPlw4gzj3XXoMZi+37zd7ES9i3FTZhNmmJFWpLl9t0GEdaKQL79eq/jv/e13F39YM4b3svGHH43r8z9fQZh50c/92aJlLmvKkMaPJn1KyG8lKzVUKoHwfOfOXRo5ZipVrNXciB/r0cyC/FS3SXt1HzPhUE+ECh0EaShdpZH6Pf3TeSpdWsUbcSJss4AT8gTSibw6evx0unbjhuFE50vM6GEWSbtb8PlKw431B74X8Fi26kG+P376T3VtwPCxhnN0tPAtDRoxXl3Dt4VvKqYC/2D+7fotKhyktfFbXWmnZRbSV16YwGq5ugxo17mvSrdW2/WUtiuXr9E7fd6jgs58PoI532C1ZLOAAZ6/XPUmhO8PedDO97eQZ/b0+8Y7nLPoK3OwBNXS1h37qhlXPHPztj3o1/2OPIrw8S6Q/8xy8fJVdR3PqsVXnoW7/Qf/IKjBl+T0I9yPWQUxMsr3WnxvaYTGCMLCYBX+8BtlKGaF9fXde35Vv/GOtZjzLtyhnDTPJOu8u27jVqXaWLRcXZ5pPam9G0df37X+/nzlGwTo7hvT6Tj11xkjTnc/zPzxXcya/4UasHDnFtfspMdOeWKn7jCnwVsZo92hbMW3jPwI1V5rWQt35udFeWstI3VYOGIQDuXT4PcnGJdRfuC7wHV07rTADa7hvmav61W7ZQTimzJjvkp7oVK11HtFXeZO5i1ZbpT1eP/m97aE62fkTXz7WlAu4hrqcS26fEReFBECQkAIPM0EglhbMpjIvxmw/wKwCmWLU+kSRVVSK5QtRR3aNqfkyV5QFVzvAaNoweKvqECe3NTh7ZbKTddeQ+mnnx3rr1BRt+82gL5Zt4EqVyhFXTq0pucSJ6b3Ro03GrmNX69JcePGU34RduOGtdTvu/fuEtRKoYZjlit8TTdUUWHCzcgPJ9G9+/fpf23fpBzZMttKGyrgN9v1oL37D1LzxvWo8/9aciP0IPXs/z5hZP9hSc9+w+mll16kt1s3p2eeCaNPZi1QHTXEp5/nFq/thMQkjWgI9BnoeC95cmXn2dRmdPPWbXqn5yDSa2VgLKTXgPdp4ZJllDNbFpWWixcvE9Jm7oiC9dyFS+n7TdupXu2qVKZUMfpxJ3fAejpmWUsUKaD4r167SaVX/1vD53gvhQrkVpc+5YbhRxOm0/PPPavywKsZX6Hxk2fQ9FmOgQU4QlzzF39JO3fvpcav16LKFUspv8NGT6Kly76mCuVKUr/enQmz1MhjuoGCziXyU9y4cah9uxZUv3Z12vzDdurDeRPyasb01LFdc/U7Mec95LFMGV9W54jz6rXr6jf+oeMFTmf+PkdtWzVjVeUctHjpCurWZzjdC7+v3Ol8iQ7Xy6lTUZuWjXltXASNmTAt2uCKDlirSW/c8qDDvW3HbsXoex5I0cZbDh05RqfZgFb2LJmU15s3b9E/587rYPw+wj86KO9/9DGVKFqQ3qhfk06ymu3b3Ek8f/GSCs9OXihVrFC0MiBhwgRe0zNq7BQ6+8959U0WzJebvuB32GvAaPVtwiMGADp0HUg/8vqtujUrq3d+gDtrzdt292rYCO/7w/HTKG2alPRur078LtPRhMkzaeU336v0HDl+ktp06EWnmOObTV+n1i0aczrOUXteB4d1txnSp6Vnn01Ey1a6NlzXb9iq3kfRQnlVOHby7OkzZ6kdDzLs4wGWhvV5QKJKeVry5de0fsMWFYanf77SmIzLV+RTLfhdpVJplcet1/FuIOiwIu+ev3CJ2nM5WLFsSfpq5Wrq3neE0SnTebfPgJGU8ZW06ntJkuQ5HY1xLP5afq/fdYG8uVSetVuGmL8xRKLTAS0FT6L5J0gQX9UtKVOkoElTZ9GUT+a59WInH8Ojr/IE5aeves2aAG9lDNyiLBzGA2fFmGvTRvXowsWLqqw1D6bo5/VWRprjxQxi1lcz0joePEKaIX8cPcHf9yk6c+ZvOnTIoZaLe3ADtxgB1+x1vWqnjEDYGGicOWchpWYNpo5c1ydIGF89A+6ZZcbcz2nsxE8ofrx46r0hf+G9TeZBSkh+Xv4BHlu3Pxjw3PTDT+raJtOAJO7DXe7sWczBy28hIASEwFNHICQkmEKhJ/ukSZGCeVntNIg2btnGjffKVCBvTvWImBXZtmMnfTC8H5UtWURde6NuNWrYohNNmjaXPpuem7BOBo0uNOhLFnE0hCqVL64M2fzERkAKclgVShfjNSrH1Cxm/VqVY4QP6xYnfzTUUNG1k7YTJ07TxUuOxthbzRqoeAvkzUEwToJOjF7vFKMEefHUghu9nZwdntfrVlGGZnagkV29YjRfMUnjdxu2qffSt0dH0jwb1q/GBpp60Sbu4KABvY47NTt+3EV9enSgBrWqqHibN6pNjVq+QwOHjaENqx7MqqLzP2vqKHo2USLlDjMpGDDAzEiyF5JQ4YL56dvvNlHPLq2V2hRmEdZv3ELVq1QgqBCjIzOZGxhv1K9Fvbq0ccTVsLaakUGDpXnjOpSQ10NCENe8GR8ZceHath9/VutSe3ZujVOqWr4UzePZ0NDgUHWeijvrTd6oyw3ypsY7gzEUNK4xUJCS1Y7r166iOiUNuYOlmSjPln9DeaQ/ZcqXaPa0DyhBvLjqLvL74OEf0dffbHB5R63ebEgdWjdVbqpy479Ow7a046dfjXxuDhrquKVKvEYrV61VeSssNJSfaze9kCSJyoP7DhymvDmz8nvbrbyVLOH4VsxhBPJ71NDeVCi/o7OfKUN61SHf99sh9d3ayQu5c2ShBnWrRisDvKUJHGdOGWVwfDVTejXIsHnrTirDLKbNXEhXr16nRbMnGmr3lcuXpNebt6d5i5cb34g1ju0/ORh9OLyPUoWvV6MSZcmUgVKlTKGchoSGqPzQoE5VI9x06VIr42QHDh6hwjzoUbNaRZUn0dHLmN4x2LB63UZKnvxFNahgN8/OmL1YrZGc9+lYSp/GsaatNK/pRQfXm9hJI/Lp19xphgqrOc96uj70/fGULUtmmjF5pPEdvPpqehoxeiLt2PmL+u51mjB40q7lG/o02vHFpC/4/K5hTdxuGRItAh8XMDuOMgNrpLUaO9TFe/Gg0Q/bd1HHts2ihWAnH8OTr/JEl5/e6jVr5HbKmBGsjo+6FJI/b3Y1SLZ7729qwMNufrPGW4rLCZS1vx08TLm4I7adyxQ9WLtt5x7ODxlpP5ctWMcLt97EWxnx59//qIFklOlD3u2ignmzcV3q2H2wGnDU4eK9fTx9DpUrU4JGc5mjhN/boJHjafa8JfzdlVPPi+8MZV1THkjEwMBPrA2CshDtCQzkYWkE3jPcYUBIRAgIASHwNBMI53KRZzAfqKU86TCwZQkkcaKEBMMf+Dv4+2EeGU/HFd7vatQ8ccKEhM4b1nxA7QuqVStWOWYaMLsRW4LZGfP6TztpezltSsKM1mJWt1v85WqliorKrHGDGkaHJ7bSZw6ndInCxik6bXlz5+TZFveqYjFJ417uOEDq1KxkxIP38OX8KdS3+9vq2v7f/lANkXo8c6QFHWrMJmPUWKvA4l7unNlcOnyl2PAM5NTpv9WxBjca4Gfn7n3qfOMWh5ot1utC9h/4Qx0z8IyJzic4pmGDRpATJ/9UR/wrVCCPS1y4htmvnbv2KOupUDUNi/MMteY8pdcCo+PUrWMrunP3rprFWbFmPR05fgJe2fqqY5ZOnfj4hw4zRv4b1KlmdIrgpUblsiqf7Hdy1cGU5DynJW2qlJQmTSo6ybNmnkTPNP2y76CalUfjvEXTBuo9oGEIQaMqU8YMlCJZUk/BxOh6fh440VKimCPdJ515zp+8oMOwc6xasYwLxwZ1HAMZB50zKz9zHsAMPmZodb7AlixoVP7hVMF3F0+BPI4BrgHDxip/mIl5nTu/ep0iOnrID8leeJ4O/H6EB1O2csPVMVvyN89kQqo6Z8e/caqioyzCTG/1yuXULI/dPItOOoww6c4lwkY6XkmfHj89ip00evTs5gZUuDHzjdklpEnzTMIaA5DDx06oo/7nq7MBd/h+3X3X1auUVcE8rHyDwNFhgjR5o5Y66n+jh/WmRbMc6uP6mj7aTY+v8sRO3aHj9OdYKH8uw/lrzo7myVOO8sJufjMCcP4ozhokkK3OgSkMWhUpnE/9beWyxHHPkfe1W3XRzT9vZcTvzm+2EdcPWjAbigFns+j31rJpPfNlLucc5+jsQsqWKqo6plBX3st1ETrAXTq0Uvd+2XtQbR2FMh/uRISAEBACTzuB4KAQNvLz9PQvjbU7WJPlTq6x6mHixIlYDXIhq1l+pSoRuMNIZWyLdbZRryvylrbnnk1MY0b2Z3WemTSa1flGjyU1A9ChXTN6jTs6D0sSJnJVLYQK2NVrD9b4meOFsSJ/03iE1aTQwDV3uM1h4jfcpEmdMtqiYVixhRw9dpqSJ3V0cjCAYJZ48eOp0yjnOrMyxQqrTtKadZsUNzTa8Y7zO2e6j/JMMQQzKe7k7D8XKEfWV9Ut63vExXc6tFSa5xgBxx/CbtuqMdWpUUHNmELNbMjICWpQQ4ePgQN/RadTd1zN/tO9nIaZnTRfIut7jB8vPkVFei4AChd05Cl0djCzDyleND+n+w8189CMZ5D37vtNqXS6RBTgCViYDXLEd87MQh0b4k9e8CcpL6VI5uIcsxLoPGJAAarfUOWDuPtG48ZxzB67BOA8qV61rNrHbw7nhbXrN6mrUIVt0aQuYSAFWwcNHz3ZuAcH1vyADjy0Hlav3aBmw77d8IMKp3qVMuqo84K3PJuV1ZjxDMWK5Fd+zP9SpUzOa0ld84v5vp00mt37+n3UuRYOPDQTs5+/WeXbLHHihJlP3f4ux1opI1ijwPxd4/3lZ7VxyMPKNyrsY468ATVou2I3Pb7KE7t1h910wZ31G9TGy5yfINnJb7qMNMerByhRprzJ+R/rcvv3dswwYtkA8hkGrTCIqTVQzP71b2v6rGXEcecgYGrWFjELlnqY5YjzvaVO5ahH9L00Tu2CY077BhikxPKMnb/sp19+/U2V6VUqlOJlE5+yFsge1jxxLEfQg5k6HDkKASEgBJ5GAiGhrCIb9RT1MFO9lJx28pteu2J+tPcdHESEDhyMvWCNYbnSJahZozqEWSyoTWJBv2/hQFgwyqkFDdNLl67oU49HO2mDZ8w2zP1kjJpd3fnzPprL60mxtg7P9MLzjtF/j5E8ohv+phGzGPuds8uekpiGZ9z2H9gQ7fbZcxfUtdSpkke75+kC1j5WYtXGb7/bTB3aNFVqTi2bvWF0cFOmcIQ1bcJISp8uurrTs4ldO9zWeKB+BnWr8xfb0J5fD/Aat1VqzW0Sfj9QzYbK7uk/z9DAd7tS4Xy5KNmLSWkZG4bw1Dmwhq/PdSPo/PlL+pJxxCxbXl7PGogg3xcvWpgbfD+r/QyhQoqZz6K8Lgsqx2u/d3RySvtQZQskDe78xmZeMId/zsIRqnD/8AxiZVZxxuAHnj8Fd1jeHxJdnTQsLMQclMtvcOzMKuatmtXn9dOHVL5DZ/Pu3XsENWrs84dOVttWTal86aJqreZfrOJXj43EmKUGz8RBHRxGetZ8u1FZa8X7gNjJs/oZYITLKr60M+ym0Rqup3OoiUPwzFAHt0q8eHGsl3ye47suz+vvv+N8qb/rVs0bGoNS/uQbaBeY5RIbgPImWt35DG/3kjij6wCXJ3920+OrPLFbd3hKR0yu28lvnsLFVkZYz76Wl6xAihR2qOHiN5aKHPrjsFr3jvOYSkpn/vqbBwMzvfKgvD7L78csqVM71NTPnbtIidI/cKfLVN3xzMtbpUCVF5obu7mTWZy1QTAjiiNmYZFfcB/uRISAEBACTzuB8PBIlJGOTtHTACN7NsesE9QC0RnTf1u2/UR72OAE5Jhz5LNDu6ZsTOZV1bk8we6hemUWzQ1GgbSkdo56bv5hl75EP7MBGKjT+BI7acPM1+QZ8wjWI9PzDBXU7LqwoR/IT7t/NaKA6uS/JXbTaE4fnh2MzBZc0TGHhdzJTgMZ2bNlUm6gsqwFblau+V5V7Km58e+PVK9SToU35H3HLKVWo0MY2bNmUEH9/MsBI48grxw7cYo2sGXFe/cds3nu4gN7WAjdve+AWu9ZkRu8Hw7vq5xu27FHqWEfPnKUDdC8RrU4DSmSJ1Odl10/73UJTn+Wt3l9qCfBelLMjq5kFVt0hrTA8A86Rtmds6z6ekyOpVg9GvvGrVzzHRvdKaSCKMYqbZBJU+eo+DPzesJHKXbzQpDTgNlt7sjZkXXcMcFaZi1o7EKyvOp4PqwZO3L0OBearNXgLD+eezahGhzwpDIO/7AqCTVorNvFemKsCXs5bVravPVH3Ga+pxXHdi0bqvVbWO+6m2dJrFKGByfQiIXVV+ShGlXLGU7s5tnsWV5VjWSzSvlhtsqK8LyJ3TR6CwPGWbRgzSRmofbwmj4w1Dzv87qN5au/o2u81jUmAvVwlCUPvusyRjB28w06i9hDWZftMDqzeeuDcscI0PRD81/lNNykb8GADCxEo6yyip30+CpPEKadusMaN87tlDHu/OGaft6YlJGlijtU3sdPmaU0VzA7jz9osaBMgWg36iQG/7Jlzah8reJ16GbRnVp9LQd/DxB8n2ZBHoRgTSgEmjkos9ewBgG+Fa2+iyPO16zdqO7r7caQd7SRNRWA/BMCQkAIPEUEgrmhFBrpxSrek8aiYplirOaykjp1H8SWSpuwtc50tIvX4WHLkcoVyqjZpdzZM6vHHjtpFtWtVZGuXLnOMwzRZzwzZUin3I0eN52wtg0zU5k4PDQAp386lzerPq8skC5k4y52xE7aQnmW5NM5iwhrPrDu8vqNm6zKu0wFn5dnNiGw7AdjE5gdQwfmUYudNFrTVImtreK99BvyoVIlfYXXla7kCh6WLYcO6K6cVyhbjBYsWaG2Amn15htqPSMaC1Cx6t21vTFLYQ3b03keNlAD9TmsK8yeNQul4/WIWmBpFcYh8B5v3b5FBXktEmZ9xvGWJLAwWINVHj1JPFbnXL5ynVon+zbnsURsuXTFakfjJR+vK8SoN9S/MAOYN3d2SsFqmZt/2BlNTRANFayRXP3t95SSZ96Ls1ojZjKs0vHtN2nIiLHUo9/7BJWts+cv0Gxu1MJvtcqlrc79Pi9ZtAANZ18YYCn6mqNjiZl+GGc58PshttRb3W/2fifC4sFuXsjwShrl89PPlnCH+zzVrl4+2n6z5qDRke7RbyQb+Sqn1qbCHxq9xZkBpDkbCdnIGg5tO/fntXY16UW2nPrlim9pw6atlOT5LobatDlM/MZa2OVff0tXuNOU8ZWXaSdbrIaqau0ajvVguXJkVuu7JnDjugDPaGP9IazMWgUzoeXLFKev16xTtzB4ocVunm3KFq/Xfb9JWVV+o151ZU14zoIvdDAej3bT6CkAWGGGVd6ZnDdhhApGmN7p+BYNdebd6rx+En2waZ8uVAMaZYo7BjM8hefpOqwom79rcNFiN9/ky51DraFu9b/eBIvkMDgEa8HeRPGvWkEZlolktfPXeCAB1r5RXteqXsnQjjCHYSc9vsoThGen7jDHq3/bLWO0e/PRbn4z+9G/4RflE9bg1mGDV1pQxn22YKm6Z35v+r4/R/iHBXFYFIeWFvIbBvis6thYXlCd39u8hV/wMoAIZTEWa4KRDhj+0fU84ob6K8ptiF6fqo8oH7V6LDqXFWo0U5afVy75xEXdX3mWf0JACAiBJ5xAFFfooXqU/0l7VjTkIcEhIcajJUyQgC23Dmbz65OUio6+gc5ED7YoCkEDBds4QE0Wo9gQbCOxYfM2CuZ9XbSU4gYQLAbCyiZMqpdeu0TNdo4dNYAGjxjHWwp8oxo67/Zsr1Tg9GixTpcORx/tpA2V5iDuOM6e9wX1ePc95RWNqfEfDjGMrMRlwzeQqFgYOAjiRbqeBCaIIdbnsZNGa5iwfjpxzCD1XiZMcTSs0VHHFjHV2PAKBLM/eHeYmZgybba6hmfv3P4tNZOrLvj4FxT04P0h3TWrllfvGUZ/rDKgdweKEycOG3hapxofuJ8rZ3Ya2LcTxQlzMLb6wTnWKr03oJvaixIdPwieBduRVC5fQp0P6NORuvYertRmcQHPgTyGrU1CTHmsb7f21GfQKBr10WS6wyyasyVbq9TkztAt3tJlPu/j9u7gUeo21uoN7N3JWMPk7T0GYTrOiyTlGVLdmSzADW8tUJNFB7OkczZCX9cz+/rc36M3/zqv2c0LSDvyB/IU1opm51kNbH3gSXq+8zYt+mIlb/kwQjnJlzc3Dev3jvqucSEzbx8zfvRAmvDxHBrGFlAheLfYAqFmtfLq3N2/rmzA5xJrHUzjgSqtzYABrW6dWivnzRrVpUOHj9Oc+Z+rP1zEViUzZuQVny8AAAzuSURBVC9wKXNwHWqy6GCi8ZuIyzOz2MmzWBcHa6MTps5WlnnhH2nJwwNUvzi1OMxh6t/+pFG/J+0Xx5a83g5q8FPYYifUrsdzOYkBsDu379LCpcupV38Hc3wL4z4YojQ04M9b3sV9qyBuGGvCoKH1ndjNN62a1eMBgD9VZ0LNVnF6sSUU1r17qy8H9OrAAxghalBo0eeOgb+qbISpd1eHqrOVi5302ClP7NQdVk763F0Z4/UbNJUXdvKbjsd6LFuyqMrrMPCjBWUKOna4ZxZrHvCaPl3v83Fo/640mMtTdB7ncYCYMceAJdTMzYL3FhYSZrw3fNNoE/Tr5TpwWdSpyosBQjCH4IjzPb/uI30/mHNJAue6f3M88lsICAEh8LQQQFEcdP3mnahLl65SqhQOAylPy8NDpRAbN7/EDRqopFkF6i2n2epo8uRJvVpoxWgl9hS0NvZgJREGPGIivtKGMKE6FclbW2APMqvASqW3TpDV/cM695ZGT3Ei7ecvXFazddYGmfYDN5c5z0K99FEI9g5M8vxzLhZG7cSL7U9u3LxhGB+y+oGa4r174WqG0puBI6hEY92nVr+yhqPPMXv5PM8uujM8pN08aUc7eQHf0/XrN91+K+54YD0iDCKhA+BJYIzk2rUbKg96yqdWv0gH1nYlS5bE7bvEnpcX2Iow1n25K5Os4Xk7t5NnsUVDfG4Ie3tOaxyBphFlQlweuLHmUWx7Ecz7JEJVNlAZPf4T1iBYThvWLPJYBtvJN3ADEwXWtPpKH4xR/XXmH84bSW2/Rzvp8VWeIF126g536bdbxrjzi2t28psnvw/7Ouryi1ynJOf6wtu3CjXmM7z2GRoj3spjO+mFWrUawWdNFBEhIASEwNNGAGVg0JVrN6OuXr3x1HUwn7aXLc8rBISAEHiSCRw//Scd5/WsPfsNpxq8b+jgPp2f5MeVZxMCQkAICAEh8FgSgMbnE6si+1gSl0QJASEgBITAQyHQuccQtS8sDCjBiqyIEBACQkAICAEh8OgJQLNTZjAfPXeJUQgIASEgBGKZALZvwdrwjK+ks62aGstJkOCEgBAQAkJACDz1BGBcLTTYZPjkqSciAISAEBACQuA/SQAGjESEgBAQAkJACAiBf5cAdigJfpq2Kfl3cUvsQkAICAEhIASEgBAQAkJACAiBJ5dAKBtPDQ4NC3tyn1CeTAgIASEgBISAEBACQkAICAEhIAQeCYGoKJ7BDGcT3iJCQAgIASEgBISAEBACQkAICAEhIAQCIRDCe0KzJdmQQMIQv0JACAgBISAEhIAQEAJCQAgIASEgBCgygmcwMY0pIgSEgBAQAkJACAgBISAEhIAQEAJCIBACQcFBFBwSEhpIGOJXCAgBISAEhIAQEAJCQAgIASEgBIQARUVxBzMiPFxQCAEhIASEgBAQAkJACAgBISAEhIAQCIhAUFAUq8jyZpgiQkAICAEhIASEgBAQAkJACAgBISAEAiEQFcUdTFGRDQSh+BUCQkAICAEhIASEgBAQAkJACAgBEIiI4A5mUFCQ0BACQkAICAEhIASEgBAQAkJACAgBIRAQgdDQYN4H877sgxkQRfEsBISAEBACQkAICAEhIASEgBAQAo4ZzJBQsSIreUEICAEhIASEgBAQAkJACAgBISAEAicQHBkREXgoEoIQEAJCQAgIASEgBISAEBACQkAIPNUEgrEPJjbDFBECQkAICAEhIASEgBAQAkJACAgBIRAIgYiISN4Hk/+JCAEhIASEgBAQAkJACAgBISAEhIAQCISAYwYzkBDErxAQAkJACAgBISAEhIAQEAJCQAgIARCIIgom2aZEMoMQEAJCQAgIASEgBISAEBACQkAIBEgAW2AGBxiGeBcCQkAICAEhIASEgBAQAkJACAgBIcDblESwkR+x8SNZQQgIASEgBISAEBACQkAICAEhIAQCJBAUHIwZTOlhBshRvAsBISAEhIAQEAJCQAgIASEgBJ56AiEh3MGEnqyIEBACQkAICAEhIASEgBAQAkJACAiBQAiEh9/HDCab+hERAkJACAgBISAEhIAQEAJCQAgIASEQAIHgoBDuYEr/MgCE4lUICAEhIASEgBAQAkJACAgBISAEQCAklFVko6SHKblBCAgBISAEhIAQEAJCQAgIASEgBAIkEB4eKWswA2Qo3oWAEBACQkAICAEhIASEgBAQAkKACQQH8z6YkZGRAkMICAEhIASEgBAQAkJACAgBISAEhEBABKKiongGU7YpCQiieBYCQkAICAEhIASEgBAQAkJACAgB3gCTNygJDua9SkSEgBAQAkJACAgBISAEhIAQEAJCQAgEQiA8PIKCIyIiAglD/AoBISAEhIAQEAJCQAgIASEgBISAEKCw0DBRkZV8IASEgBAQAkJACAgBISAEhIAQEAKBE8DkpWxTEjhHCUEICAEhIASEgBAQAkJACAgBISAE1BrMIFmDKTlBCAgBISAEhIAQEAJCQAgIASEgBAIjgB1KZJuSwBiKbyEgBISAEBACQkAICAEhIASEgBBgAqGhoRQcGhYmMISAEBACQkAICAEhIASEgBAQAkJACAREICqKZzDDw+8HFIh4FgJCQAgIASEgBISAEBACQkAICAEhEBISwvtgBocICSEgBISAEBACQkAICAEhIASEgBAQAgERiIzgGUxMY4oIASEgBISAEBACQkAICAEhIASEgBAIhEBQcBAFh4SEBhKG+BUCQkAICAEhIASEgBAQAkJACAgBIUBRUdzBjAgPFxRCQAgIASEgBISAEBACQkAICAEhIAQCIhAUFMUqshQVUCDiWQgIASEgBISAEBACQkAICAEhIASEQFQUdzBFRVYyghAQAkJACAgBISAEhIAQEAJCQAgESiAigjuYQUFBgYYj/oWAEBACQkAICAEhIASEgBAQAkLgKScQGhrM+2Del30wn/J8II8vBISAEBACQkAICAEhIASEgBAImICawQwJFSuyAZOUAISAEBACQkAICAEhIASEgBAQAkKAgiMjIgSDEBACQkAICAEhIASEgBAQAkJACAiBgAgEYx9MbIYpIgSEgBAQAkJACAgBISAEhIAQEAJCIBACERGRvA8m/xMRAkJACAgBISAEhIAQEAJCQAgIASEQCAHHDGYgIYhfISAEhIAQEAJCQAgIASEgBISAEBACIBBFFEyyTYlkBiEgBISAEBACQkAICAEhIASEgBAIkAC2wAwOMAzxLgSEgBAQAkJACAgBISAEhIAQEAJCgCLYgGywTGBKThACQkAICAEhIASEgBAQAkJACAiBQAkEBQdjBlOsyAYKUvwLASEgBISAEBACQkAICAEhIASedgIhIdzBhJ6siBAQAkJACAgBISAEhIAQEAJCQAgIgUAIhIffxwwmm/oREQJCQAgIASEgBISAEBACQkAICAEhEACB4KAQ7mBK/zIAhOJVCAgBISAEhIAQEAJCQAgIASEgBEAgJJRVZKOkhym5QQgIASEgBISAEBACQkAICAEhIAQCJBAeHilrMANkKN6FgBAQAkJACAgBISAEhIAQEAJCgAkEB/M+mJGRkQJDCAgBISAEhIAQEAJCQAgIASEgBIRAQASioqJ4BlO2KQkIongWAkJACAgBISAEhIAQEAJCQAgIAd4AkzcoCQ7mvUpEhIAQEAJCQAgIASEgBISAEBACQkAIBEIgPDyCgiMiIgIJQ/wKASEgBISAEBACQkAICAEhIASEgBCgsNAwUZGVfCAEhIAQEAJCQAgIASEgBISAEBACgRPA5KVsUxI4RwlBCAgBISAEhIAQEAJCQAgIASEgBNQazCBZgyk5QQgIASEgBISAEBACQkAICAEhIAQCI4AdSmSbksAYim8hIASEgBAQAkJACAgBISAEhIAQYAKhoaEUHBoWJjCEgBAQAkJACAgBISAEhIAQEAJCQAgERCAqimcww8PvBxSIeBYCQkAICAEhIASEgBAQAkJACAgBIRASEsL7YAaHCAkhIASEgBAQAkJACAgBISAEhIAQEAIBEYiM4BlMTGOKCAEhIASEgBAQAkJACAgBISAEhIAQCIRAUHAQBYeEhAYShvgVAkJACAgBISAEhIAQEAJCQAgIASFAUVHcwYwIDxcUQkAICAEhIASEgBAQAkJACAgBISAEAiIQFBTFKrIUFVAg4lkICAEhIASEgBAQAkJACAgBISAEhEBUFHcwRUVWMoIQEAJCQAgIASEgBISAEBACQkAIBEogIoI7mEFBQYGGI/6FgBAQAkJACAgBISAEhIAQEAJC4CknEBoa/P/27iAFABAEAmBY//9wGElf8Nh8QHDYm+BWD+bWg/l5DqxPgAABAgQIECBAgACBtsC7YM7li2xb0gACBAgQIECAAAECBAgQGHEyMRAgQIAAAQIECBAgQIAAgZZAVA/mBc/e/7HLBzkdAAAAAElFTkSuQmCC;dashed=1;dashPattern=1 4;imageBorder=default;" parent="1" vertex="1">
          <mxGeometry width="813.5" height="275" as="geometry" />
        </mxCell>
        <mxCell id="RAb3Ar-sFwlH_cfJhrFY-4" value="&lt;span style=&quot;font-size: 13px;&quot;&gt;&lt;font face=&quot;Courier New&quot; style=&quot;&quot; color=&quot;#0000ff&quot;&gt;qbusinesness-webexperience-title-color&lt;/font&gt;&lt;/span&gt;" style="text;html=1;strokeColor=none;fillColor=none;align=left;verticalAlign=middle;whiteSpace=wrap;rounded=0;fontSize=13;container=0;" parent="1" vertex="1">
          <mxGeometry x="400" y="65" width="310" height="30" as="geometry" />
        </mxCell>
        <mxCell id="RAb3Ar-sFwlH_cfJhrFY-7" value="&lt;span style=&quot;font-size: 13px;&quot;&gt;&lt;font face=&quot;Courier New&quot; style=&quot;&quot; color=&quot;#00994d&quot;&gt;title&lt;/font&gt;&lt;/span&gt;" style="text;html=1;strokeColor=none;fillColor=none;align=left;verticalAlign=middle;whiteSpace=wrap;rounded=0;fontSize=13;fontColor=#000000;container=0;" parent="1" vertex="1">
          <mxGeometry x="400" y="33" width="54" height="30" as="geometry" />
        </mxCell>
        <mxCell id="RAb3Ar-sFwlH_cfJhrFY-10" value="" style="rounded=1;whiteSpace=wrap;html=1;strokeWidth=1;dashed=1;fillColor=none;container=0;strokeColor=#ebebeb;" parent="1" vertex="1">
          <mxGeometry x="40" y="10" width="56" height="50" as="geometry" />
        </mxCell>
        <mxCell id="RAb3Ar-sFwlH_cfJhrFY-15" value="&lt;span style=&quot;border-color: rgb(218, 220, 224);&quot;&gt;&lt;font face=&quot;Courier New&quot; style=&quot;border-color: rgb(218, 220, 224);&quot; color=&quot;#0000ff&quot;&gt;qbusinesness-webexperience-logo-url&lt;/font&gt;&lt;/span&gt;" style="text;html=1;strokeColor=none;fillColor=none;align=left;verticalAlign=middle;whiteSpace=wrap;rounded=0;fontSize=13;fontColor=#000000;container=0;" parent="1" vertex="1">
          <mxGeometry x="400" y="1" width="290" height="30" as="geometry" />
        </mxCell>
        <mxCell id="RAb3Ar-sFwlH_cfJhrFY-46" style="edgeStyle=orthogonalEdgeStyle;rounded=0;orthogonalLoop=1;jettySize=auto;html=1;entryX=0;entryY=0.5;entryDx=0;entryDy=0;strokeColor=#ebebeb;" parent="1" source="RAb3Ar-sFwlH_cfJhrFY-18" target="RAb3Ar-sFwlH_cfJhrFY-19" edge="1">
          <mxGeometry relative="1" as="geometry" />
        </mxCell>
        <mxCell id="RAb3Ar-sFwlH_cfJhrFY-18" value="" style="rounded=1;whiteSpace=wrap;html=1;strokeWidth=1;dashed=1;fillColor=none;container=0;strokeColor=#ebebeb;" parent="1" vertex="1">
          <mxGeometry x="40" y="100" width="200" height="24" as="geometry" />
        </mxCell>
        <mxCell id="RAb3Ar-sFwlH_cfJhrFY-19" value="&lt;span style=&quot;font-size: 13px;&quot;&gt;&lt;font face=&quot;Courier New&quot; style=&quot;&quot; color=&quot;#00994d&quot;&gt;subtitle&lt;/font&gt;&lt;/span&gt;" style="text;html=1;strokeColor=none;fillColor=none;align=left;verticalAlign=middle;whiteSpace=wrap;rounded=0;fontSize=13;fontColor=#000000;container=0;" parent="1" vertex="1">
          <mxGeometry x="400" y="97" width="71" height="30" as="geometry" />
        </mxCell>
        <mxCell id="GyJonoBBoI0ZVEBApy-h-10" style="edgeStyle=orthogonalEdgeStyle;rounded=0;orthogonalLoop=1;jettySize=auto;html=1;strokeColor=#ebebeb;" parent="1" source="RAb3Ar-sFwlH_cfJhrFY-21" target="RAb3Ar-sFwlH_cfJhrFY-22" edge="1">
          <mxGeometry relative="1" as="geometry" />
        </mxCell>
        <mxCell id="RAb3Ar-sFwlH_cfJhrFY-21" value="" style="rounded=1;whiteSpace=wrap;html=1;strokeWidth=1;dashed=1;fillColor=none;container=0;strokeColor=#ebebeb;" parent="1" vertex="1">
          <mxGeometry x="40" y="140" width="720" height="70" as="geometry" />
        </mxCell>
        <mxCell id="RAb3Ar-sFwlH_cfJhrFY-22" value="&lt;font face=&quot;Courier New&quot; style=&quot;&quot; color=&quot;#00994d&quot;&gt;welcome-message&lt;/font&gt;" style="text;html=1;strokeColor=none;fillColor=none;align=center;verticalAlign=middle;whiteSpace=wrap;rounded=0;fontSize=13;fontColor=#000000;container=0;" parent="1" vertex="1">
          <mxGeometry x="337.5" y="237" width="125" height="30" as="geometry" />
        </mxCell>
        <mxCell id="RAb3Ar-sFwlH_cfJhrFY-37" value="" style="endArrow=classic;startArrow=classic;html=1;rounded=0;entryX=0;entryY=0.5;entryDx=0;entryDy=0;exitX=1;exitY=0.5;exitDx=0;exitDy=0;strokeColor=#ebebeb;" parent="1" source="RAb3Ar-sFwlH_cfJhrFY-10" target="RAb3Ar-sFwlH_cfJhrFY-15" edge="1">
          <mxGeometry width="50" height="50" relative="1" as="geometry">
            <mxPoint x="86" y="62" as="sourcePoint" />
            <mxPoint x="136" y="12" as="targetPoint" />
            <Array as="points">
              <mxPoint x="166" y="15" />
            </Array>
          </mxGeometry>
        </mxCell>
        <mxCell id="GyJonoBBoI0ZVEBApy-h-3" style="edgeStyle=orthogonalEdgeStyle;rounded=0;orthogonalLoop=1;jettySize=auto;html=1;entryX=0;entryY=0.5;entryDx=0;entryDy=0;strokeColor=#ebebeb;" parent="1" source="RAb3Ar-sFwlH_cfJhrFY-3" target="RAb3Ar-sFwlH_cfJhrFY-4" edge="1">
          <mxGeometry relative="1" as="geometry" />
        </mxCell>
        <mxCell id="GyJonoBBoI0ZVEBApy-h-11" style="edgeStyle=orthogonalEdgeStyle;rounded=0;orthogonalLoop=1;jettySize=auto;html=1;exitX=0.5;exitY=0;exitDx=0;exitDy=0;entryX=0;entryY=0.5;entryDx=0;entryDy=0;strokeColor=#ebebeb;" parent="1" source="RAb3Ar-sFwlH_cfJhrFY-3" target="RAb3Ar-sFwlH_cfJhrFY-7" edge="1">
          <mxGeometry relative="1" as="geometry">
            <Array as="points">
              <mxPoint x="185" y="48" />
            </Array>
          </mxGeometry>
        </mxCell>
        <mxCell id="RAb3Ar-sFwlH_cfJhrFY-3" value="" style="rounded=1;whiteSpace=wrap;html=1;strokeWidth=1;dashed=1;fillColor=none;container=0;strokeColor=#ebebeb;" parent="1" vertex="1">
          <mxGeometry x="40" y="65" width="290" height="31" as="geometry" />
        </mxCell>
        <mxCell id="GyJonoBBoI0ZVEBApy-h-6" style="edgeStyle=orthogonalEdgeStyle;rounded=0;orthogonalLoop=1;jettySize=auto;html=1;entryX=0;entryY=0.5;entryDx=0;entryDy=0;strokeColor=#ebebeb;" parent="1" edge="1">
          <mxGeometry relative="1" as="geometry">
            <mxPoint x="46" y="251.9999999999999" as="sourcePoint" />
            <mxPoint x="41" y="165" as="targetPoint" />
            <Array as="points">
              <mxPoint x="20" y="252" />
              <mxPoint x="20" y="165" />
            </Array>
          </mxGeometry>
        </mxCell>
        <mxCell id="GyJonoBBoI0ZVEBApy-h-7" style="edgeStyle=orthogonalEdgeStyle;rounded=0;orthogonalLoop=1;jettySize=auto;html=1;entryX=0;entryY=0.5;entryDx=0;entryDy=0;strokeColor=#ebebeb;" parent="1" source="RAb3Ar-sFwlH_cfJhrFY-66" target="RAb3Ar-sFwlH_cfJhrFY-18" edge="1">
          <mxGeometry relative="1" as="geometry">
            <Array as="points">
              <mxPoint x="20" y="252" />
              <mxPoint x="20" y="112" />
            </Array>
          </mxGeometry>
        </mxCell>
        <mxCell id="GyJonoBBoI0ZVEBApy-h-8" style="edgeStyle=orthogonalEdgeStyle;rounded=0;orthogonalLoop=1;jettySize=auto;html=1;entryX=0;entryY=0.5;entryDx=0;entryDy=0;fontColor=#f5f5f5;strokeColor=#ebebeb;" parent="1" source="RAb3Ar-sFwlH_cfJhrFY-66" target="RAb3Ar-sFwlH_cfJhrFY-3" edge="1">
          <mxGeometry relative="1" as="geometry">
            <Array as="points">
              <mxPoint x="20" y="252" />
              <mxPoint x="20" y="81" />
            </Array>
          </mxGeometry>
        </mxCell>
        <mxCell id="RAb3Ar-sFwlH_cfJhrFY-66" value="&lt;font face=&quot;Courier New&quot; color=&quot;#0000ff&quot;&gt;qbusiness-webexperience-font-typeface&lt;/font&gt;" style="text;html=1;strokeColor=none;fillColor=none;align=center;verticalAlign=middle;whiteSpace=wrap;rounded=0;fontSize=13;container=0;" parent="1" vertex="1">
          <mxGeometry x="45" y="228.5" width="194" height="47" as="geometry" />
        </mxCell>
        <mxCell id="RAb3Ar-sFwlH_cfJhrFY-27" value="&lt;font color=&quot;#0000ff&quot; face=&quot;Courier New&quot;&gt;background&lt;/font&gt;" style="rounded=1;whiteSpace=wrap;html=1;strokeWidth=1;fillWeight=4;hachureGap=8;hachureAngle=45;fillColor=#f0f0f0;sketch=1;container=0;" parent="1" vertex="1">
          <mxGeometry x="710" y="25" width="98" height="46" as="geometry" />
        </mxCell>
      </root>
    </mxGraphModel>
  </diagram>
</mxfile>
